<?xml version="1.0" standalone="no"?><!DOCTYPE svg PUBLIC "-//W3C//DTD SVG 1.1//EN" "http://www.w3.org/Graphics/SVG/1.1/DTD/svg11.dtd"><svg t="1618368638496" class="icon" viewBox="0 0 1024 1024" version="1.1" xmlns="http://www.w3.org/2000/svg" p-id="4343" xmlns:xlink="http://www.w3.org/1999/xlink" width="200" height="200"><defs><style type="text/css"></style></defs><path d="M512 0c282.7776 0 512 229.2224 512 512s-229.2224 512-512 512S0 794.7776 0 512 229.2224 0 512 0z m0 51.2a460.8 460.8 0 1 0 0 921.6 460.8 460.8 0 0 0 0-921.6z m0 307.2a40.96 40.96 0 0 1 40.96 40.96v378.88a40.96 40.96 0 1 1-81.92 0V399.36A40.96 40.96 0 0 1 512 358.4z m0-153.6a51.2 51.2 0 1 1 0 102.4 51.2 51.2 0 0 1 0-102.4z" p-id="4344"></path></svg>
