<svg t="1618455227775" class="icon" viewBox="0 0 1024 1024" version="1.1" xmlns="http://www.w3.org/2000/svg" p-id="17203" width="200" height="200"><path d="M510.1056 0.6656a509.2864 509.2864 0 0 0-509.44 509.44 509.2864 509.2864 0 0 0 509.44 509.44 509.2864 509.2864 0 0 0 509.44-509.44 509.2864 509.2864 0 0 0-509.44-509.44z m0 955.0848c-245.9648 0-445.5936-199.68-445.5936-445.6448S264.192 64.512 510.1056 64.512c245.9648 0 445.6448 199.68 445.6448 445.5936 0 245.9648-199.68 445.6448-445.6448 445.6448zM165.376 531.712h5.12-5.12z" fill="#323C57" p-id="17204"></path><path d="M262.0928 544.5632h583.0144a37.7856 37.7856 0 0 0 37.5296-37.5296 37.7856 37.7856 0 0 0-37.5296-37.5808H262.0928a37.7856 37.7856 0 0 0-37.5808 37.5808c0 20.5824 16.9984 37.5296 37.5808 37.5296z" fill="#323C57" p-id="17205"></path><path d="M288.8192 531.712l230.5536-231.0144a30.72 30.72 0 0 0 0-43.264l-10.2912-10.24a30.72 30.72 0 0 0-43.2128 0L235.3152 478.208a30.72 30.72 0 0 0 0 43.2128l10.2912 10.2912a30.72 30.72 0 0 0 43.2128 0z" fill="#323C57" p-id="17206"></path><path d="M238.4384 535.8592l230.5024 231.0144a30.72 30.72 0 0 0 43.2128 0l10.2912-10.24a30.72 30.72 0 0 0 0-43.264L291.9424 482.304a30.72 30.72 0 0 0-43.2128 0l-10.2912 10.2912a30.72 30.72 0 0 0 0 43.264z" fill="#323C57" p-id="17207"></path></svg>
