<?xml version="1.0" standalone="no"?><!DOCTYPE svg PUBLIC "-//W3C//DTD SVG 1.1//EN" "http://www.w3.org/Graphics/SVG/1.1/DTD/svg11.dtd"><svg t="1622689855972" class="icon" viewBox="0 0 1024 1024" version="1.1" xmlns="http://www.w3.org/2000/svg" p-id="16018" xmlns:xlink="http://www.w3.org/1999/xlink" width="200" height="200"><defs><style type="text/css"></style></defs><path d="M512.01 1010.33c-274.852 0-498.488-223.56-498.488-498.325 0-274.77 223.642-498.335 498.488-498.335 274.842 0 498.468 223.565 498.468 498.335 0 274.765-223.626 498.325-498.468 498.325z m289.06-690.304c-13.931-13.82-45.947-21.376-59.766-7.358L442.22 611.666 282.706 452.204c-13.737-14.127-42.43-2.043-56.443 11.668-14.116 13.732-14.403 36.306-0.686 50.324l190.039 193.895c0.102 0.092 0.195 0.092 0.297 0.19 0.097 0.091 0.097 0.199 0.195 0.291 2.237 2.232 5.058 3.61 7.69 5.069 1.362 0.778 2.529 1.94 3.891 2.53a35.789 35.789 0 0 0 13.445 2.63c4.475 0 9.052-0.89 13.333-2.63 1.372-0.59 2.432-1.752 3.804-2.443 2.626-1.47 5.447-2.821 7.69-5.059 0.097-0.102 0.097-0.189 0.195-0.302 0.097-0.092 0.184-0.092 0.291-0.19l334.905-337.924c13.834-13.916 13.64-36.403-0.282-50.227z m0 0" p-id="16019"></path></svg>