<svg
  t="1618475275108"
  class="icon"
  viewBox="0 0 1024 1024"
  version="1.1"
  xmlns="http://www.w3.org/2000/svg"
  p-id="3632"
  width="200"
  height="200"
>
  <path
    d="M212.992 904.277333L118.186667 750.08l19.541333-11.690667 94.762667 154.282667-19.498667 11.648z m94.464 5.546667l-190.933333-362.666667 20.437333-10.410666 192.341333 365.269333-21.845333 7.808z m105.514667 0L117.546667 346.88l20.394666-10.453333 297.386667 566.869333-22.357333 6.485333z m107.605333 0L117.546667 122.88l22.698666-5.546667 402.133334 784.853334-21.76 7.594666z m97.152-5.546667L212.48 131.2l20.437333-10.453333 405.162667 773.034666-20.394667 10.496z m123.434667 0L308.949333 131.498667l20.138667-11.093334L761.130667 893.44l-19.968 10.837333z m133.845333 0L436.864 131.498667l20.053333-11.093334L895.36 893.44l-20.309333 10.837333z m6.314667-206.378666L551.68 131.669333l19.925333-11.093333 329.642667 566.272-19.925333 11.093333z m0-217.429334l-209.28-348.757333 19.754666-11.52 209.322667 348.714667-19.797333 11.562666z m-1.152-202.794666l-96.298667-145.493334 19.2-12.373333 96.341333 145.493333-19.242666 12.373334z"
    p-id="3633"
  ></path>
  <path
    d="M902.698667 909.738667H116.224V114.688h786.474667v795.050667z m-730.453334-55.253334h674.474667V169.856H175.232l-2.986667 684.629333z"
    p-id="3634"
  ></path>
  <path
    d="M857.472 864.981333V1024h161.450667v-159.018667h-161.450667z m115.712 113.962667h-69.973333V910.08h70.016v68.906667zM857.472 0v159.018667h161.450667V0h-161.450667z m115.712 113.962667h-69.973333V45.056h70.016V113.92zM0.426667 864.981333V1024h161.408v-159.018667H0.426667z m115.669333 113.962667H46.08V910.08h69.973333v68.906667zM0.426667 0v159.018667h161.408V0H0.426667zM116.053333 113.962667H46.08V45.056h69.973333V113.92z"
    p-id="3635"
  ></path>
</svg>
