<?xml version="1.0" standalone="no"?><!DOCTYPE svg PUBLIC "-//W3C//DTD SVG 1.1//EN" "http://www.w3.org/Graphics/SVG/1.1/DTD/svg11.dtd"><svg t="1626252976272" class="icon" viewBox="0 0 1024 1024" version="1.1" xmlns="http://www.w3.org/2000/svg" p-id="6062" xmlns:xlink="http://www.w3.org/1999/xlink" width="200" height="200"><defs><style type="text/css"></style></defs><path d="M942.08 0H81.92C36.864 0 0 36.864 0 81.92v860.16c0 45.056 36.864 81.92 81.92 81.92h860.16c45.056 0 81.92-36.864 81.92-81.92V81.92c0-45.056-36.864-81.92-81.92-81.92z m-59.392 863.232H141.312c-14.848 0-24.576-9.728-24.576-24.576s9.728-24.576 24.576-24.576h49.664V324.608C190.464 245.248 249.856 230.4 249.856 230.4l331.264-93.696c5.12 0 14.848 0 19.968 5.12s9.728 9.728 9.728 19.968v54.272l158.208 49.664c24.576 5.12 64.512 34.816 64.512 103.936V814.08h49.664c14.848 0 24.576 9.728 24.576 24.576s-10.24 24.576-25.088 24.576z" fill="" p-id="6063"></path><path d="M759.296 314.368h-5.12l-143.36-49.664V814.08h173.056V368.64c0-49.152-19.968-54.272-24.576-54.272z m-34.816 459.776h-49.664v-49.664h49.664v49.664z m0-83.968h-49.664v-49.664h49.664v49.664z m0-78.848h-49.664v-49.664h49.664v49.664z m0-84.48h-49.664v-49.664h49.664v49.664z m0-83.968h-49.664v-49.664h49.664v49.664zM240.128 324.608V814.08h321.536V196.096l-296.96 83.968c-4.608 0-24.576 9.728-24.576 44.544z m202.752-10.24h49.664v49.664h-49.664v-49.664z m0 79.36h49.664v49.664h-49.664v-49.664z m0 83.968h49.664v49.664h-49.664v-49.664z m0 83.968h49.664v49.664h-49.664v-49.664z m0 79.36h49.664v49.664h-49.664v-49.664z m0 83.968h49.664v49.664h-49.664v-49.664zM329.216 314.368H378.88v49.664h-49.664v-49.664z m0 79.36H378.88v49.664h-49.664v-49.664z m0 83.968H378.88v49.664h-49.664v-49.664z m0 83.968H378.88v49.664h-49.664v-49.664z m0 79.36H378.88v49.664h-49.664v-49.664z m0 83.968H378.88v49.664h-49.664v-49.664z" fill="" p-id="6064"></path></svg>