<?xml version="1.0" standalone="no"?><!DOCTYPE svg PUBLIC "-//W3C//DTD SVG 1.1//EN" "http://www.w3.org/Graphics/SVG/1.1/DTD/svg11.dtd"><svg t="1626252944427" class="icon" viewBox="0 0 1024 1024" version="1.1" xmlns="http://www.w3.org/2000/svg" p-id="5805" xmlns:xlink="http://www.w3.org/1999/xlink" width="200" height="200"><defs><style type="text/css"></style></defs><path d="M634.368 289.792h-93.184L457.216 352.768H336.384v232.448h222.208c6.144-40.96 35.84-74.24 75.264-84.992V289.792zM618.496 558.08c-17.92 17.92-23.04 44.544-13.824 68.096 9.728 23.552 32.256 38.4 57.856 38.4 16.384 0 32.256-6.656 44.032-17.92 11.776-11.776 18.432-27.648 18.432-44.032 0-25.088-14.848-48.128-38.4-57.856-23.04-10.24-50.176-4.608-68.096 13.312z" p-id="5806"></path><path d="M942.08 0H81.92C36.864 0 0 36.864 0 81.92v860.16c0 45.056 36.864 81.92 81.92 81.92h860.16c45.056 0 81.92-36.864 81.92-81.92V81.92c0-45.056-36.864-81.92-81.92-81.92z m-175.616 585.216h95.744c11.776 0 21.504 9.728 21.504 21.504 0 11.776-9.728 21.504-21.504 21.504h-98.304c-10.752 40.96-44.544 71.168-86.528 77.312v166.4c0 11.776-9.728 21.504-21.504 21.504-11.776 0-21.504-9.728-21.504-21.504v-168.96c-35.84-10.24-64-38.4-73.728-74.752H336.384v244.224c0 11.776-9.728 21.504-21.504 21.504-11.776 0-21.504-9.728-21.504-21.504v-244.224H180.224c-11.776 0-21.504-9.728-21.504-21.504 0-11.776 9.728-21.504 21.504-21.504h113.152V352.768H183.808c-11.776 0-21.504-9.728-21.504-21.504 0-11.776 9.728-21.504 21.504-21.504h259.072l83.968-62.976H634.88V182.272c0-11.776 9.728-21.504 21.504-21.504 11.776 0 21.504 9.728 21.504 21.504v64.512h184.832c11.776 0 21.504 9.728 21.504 21.504 0 11.776-9.728 21.504-21.504 21.504h-184.832v208.896c45.056 6.656 80.896 41.984 88.576 86.528z" p-id="5807"></path></svg>