<?xml version="1.0" standalone="no"?><!DOCTYPE svg PUBLIC "-//W3C//DTD SVG 1.1//EN" "http://www.w3.org/Graphics/SVG/1.1/DTD/svg11.dtd"><svg t="1626252993058" class="icon" viewBox="0 0 1024 1024" version="1.1" xmlns="http://www.w3.org/2000/svg" p-id="6317" xmlns:xlink="http://www.w3.org/1999/xlink" width="200" height="200"><defs><style type="text/css"></style></defs><path d="M942.08 0H81.92C36.864 0 0 36.864 0 81.92v860.16c0 45.056 36.864 81.92 81.92 81.92h860.16c45.056 0 81.92-36.864 81.92-81.92V81.92c0-45.056-36.864-81.92-81.92-81.92zM391.168 305.152c-19.968-12.8-23.552-38.4-11.776-55.808 8.192-21.504 31.744-30.208 51.712-17.408l51.712 30.208V176.64c0-25.6 9.216-43.008 33.28-43.008s32.256 17.408 32.256 43.008v85.504l51.712-34.304c19.968-8.704 43.52-4.096 55.296 16.896 8.192 21.504 4.096 47.104-15.872 59.904l-91.136 55.808v77.312l51.712-34.304c19.968-8.704 43.52-4.096 55.296 16.896 8.192 21.504 4.096 47.104-15.872 59.904l-91.136 55.808v132.608c0 25.6-8.192 43.008-32.256 43.008s-33.28-17.408-33.28-43.008v-132.608L391.168 480.768c-19.968-12.8-23.552-38.4-11.776-55.808 8.192-21.504 31.744-30.208 51.712-17.408l51.712 30.208v-76.8L391.168 305.152zM916.48 828.928c-7.68 8.704-19.968 17.408-31.744 17.408H157.184c-11.776 0-23.552-4.096-31.744-17.408-7.68-12.8-7.68-21.504-7.68-34.304L197.12 409.6c4.096-21.504 19.968-26.624 39.424-26.624h47.616c23.552 0 39.424 4.608 39.424 30.208s-15.872 33.28-39.424 33.28h-47.616l-63.488 342.528h696.832l-63.488-342.528h-47.616c-23.552 0-39.424-10.24-39.424-35.84s25.6-32.768 49.152-32.768h46.592c19.968 0 35.84 12.8 39.424 34.304l69.632 382.464c4.608 12.8 0.512 26.112-7.68 34.304z" fill="" p-id="6318"></path></svg>