<?xml version="1.0" standalone="no"?><!DOCTYPE svg PUBLIC "-//W3C//DTD SVG 1.1//EN" "http://www.w3.org/Graphics/SVG/1.1/DTD/svg11.dtd"><svg t="1626252969203" class="icon" viewBox="0 0 1024 1024" version="1.1" xmlns="http://www.w3.org/2000/svg" p-id="5933" xmlns:xlink="http://www.w3.org/1999/xlink" width="200" height="200"><defs><style type="text/css"></style></defs><path d="M528.896 769.024c-131.072 0-237.056-109.568-237.056-244.736s105.984-244.736 237.056-244.736c85.504 0 160.256 46.592 202.24 116.736l107.008-61.44c-65.024-112.64-182.784-182.272-310.272-182.272-199.168 0-361.472 167.424-361.472 373.76 0 205.824 162.304 373.76 361.472 373.76 131.584 0 250.88-72.704 314.88-190.464l-109.056-60.928c-40.96 71.68-117.248 120.32-204.8 120.32z" fill="" p-id="5934"></path><path d="M565.76 522.752l192.512 107.52-1.024-1.024V412.672z" fill="" p-id="5935"></path><path d="M942.08 0H81.92C36.864 0 0 36.864 0 81.92v860.16c0 45.056 36.864 81.92 81.92 81.92h860.16c45.056 0 81.92-36.864 81.92-81.92V81.92c0-45.056-36.864-81.92-81.92-81.92z m-62.976 697.344l-5.632 11.776c-32.256 64.512-80.896 118.784-140.288 157.184-61.44 39.424-132.608 60.416-205.312 60.416-52.736 0-103.424-10.752-151.552-31.744-46.08-20.48-88.064-49.152-123.392-86.016-35.84-36.864-63.488-79.872-83.456-127.488-20.48-49.152-30.72-101.888-30.72-156.16 0-54.272 10.24-106.496 30.72-156.16 19.456-47.616 47.616-90.624 83.456-127.488 35.84-36.864 77.312-66.048 123.392-86.016 48.128-20.992 98.816-31.744 151.552-31.744 71.168 0 140.288 19.968 201.216 57.856 58.88 36.864 107.008 88.576 140.288 150.528l6.144 11.776-93.696 54.272h3.584v44.032c11.264-6.144 27.136-8.704 39.936-8.704s30.72 3.072 40.96 11.264c14.336 11.264 25.088 30.208 25.088 45.056 0 15.36-8.704 32.256-20.992 42.496-12.8 10.24-29.184 13.824-45.568 13.824-15.36 0-29.696-2.048-39.936-8.192v105.984l94.208 53.248z" fill="" p-id="5936"></path></svg>