<?xml version="1.0" standalone="no"?><!DOCTYPE svg PUBLIC "-//W3C//DTD SVG 1.1//EN" "http://www.w3.org/Graphics/SVG/1.1/DTD/svg11.dtd"><svg t="1626252984781" class="icon" viewBox="0 0 1024 1024" version="1.1" xmlns="http://www.w3.org/2000/svg" p-id="6190" xmlns:xlink="http://www.w3.org/1999/xlink" width="200" height="200"><defs><style type="text/css"></style></defs><path d="M942.08 0H81.92C36.864 0 0 36.864 0 81.92v860.16c0 45.056 36.864 81.92 81.92 81.92h860.16c45.056 0 81.92-36.864 81.92-81.92V81.92c0-45.056-36.864-81.92-81.92-81.92z m-186.368 884.224H261.12c-14.336-0.512-25.6-12.288-25.6-26.624 0-14.336 11.264-26.624 25.6-26.624h494.592c14.336 0 26.112 11.776 26.112 26.624 0 14.336-11.776 26.624-26.112 26.624z m106.496-126.976c-0.512 14.336-11.776 26.112-26.112 26.112h-650.24c-10.24 2.048-20.48-2.56-26.624-11.776-5.632-9.216-5.632-20.48 0-29.696 5.632-8.704 15.872-13.312 26.624-11.776h650.24c7.168 0 13.824 3.072 18.432 7.68 4.608 5.632 7.68 12.288 7.68 19.456z m79.36-92.16c-3.072 8.192-10.24 14.336-18.432 16.384l1.536 2.048h-814.08v-2.048h-3.584c-9.216 0-17.92-5.12-22.528-13.312-4.608-8.192-4.096-18.432 0.512-26.112l262.656-496.64c4.608-7.168 12.8-11.776 20.992-12.288 8.192 0 15.872 4.096 20.992 10.752L631.296 481.28l109.056-129.536c5.12-6.144 12.288-9.728 20.48-9.728s15.36 3.584 20.48 9.728l156.672 289.28c5.632 6.656 6.656 15.872 3.584 24.064z" fill="" p-id="6191"></path></svg>