<?xml version="1.0" standalone="no"?><!DOCTYPE svg PUBLIC "-//W3C//DTD SVG 1.1//EN" "http://www.w3.org/Graphics/SVG/1.1/DTD/svg11.dtd"><svg t="1597806888836" class="icon" viewBox="0 0 1024 1024" version="1.1" xmlns="http://www.w3.org/2000/svg" p-id="30257" xmlns:xlink="http://www.w3.org/1999/xlink" width="200" height="200"><defs><style type="text/css"></style></defs><path d="M952.1152 295.0656h-321.4336V92.2112C630.6816 41.5232 588.1344 0 536.064 0H479.3856C427.4176 0 384.8704 41.472 384.8704 92.2112v202.8544H63.4368a37.4784 37.4784 0 0 0-37.8368 36.864v184.4224c0 20.3264 16.9984 36.9152 37.8368 36.9152h18.8928v284.928c0 81.152-18.944 148.48-18.944 148.48 0 20.2752 17.0496 36.864 37.888 36.864h813.056a37.4784 37.4784 0 0 0 37.7856-36.864s-18.944-70.144-18.944-152.1664v-281.2416h18.944a37.4784 37.4784 0 0 0 37.7856-36.864V331.9808a37.4784 37.4784 0 0 0-37.7856-36.864z m-12.1344 191.0272c0 10.1376-8.4992 18.432-18.944 18.432H94.464a18.7392 18.7392 0 0 1-18.944-18.432V362.24c0-10.1376 8.5504-18.432 18.944-18.432h340.3264V101.376c0-35.9424 29.3376-52.736 66.2016-52.736h13.5168c36.864 0 66.2016 16.7936 66.2016 52.736v242.3808h340.3264c10.4448 0 18.944 8.2944 18.944 18.432v123.904z m-228.9664 242.3808h-9.472a14.336 14.336 0 0 0-14.1824 13.824v232.4992H536.1152V742.4a14.336 14.336 0 0 0-14.1824-13.8752h-9.472a14.336 14.336 0 0 0-14.1312 13.824v232.4992h-160.768V742.4a14.336 14.336 0 0 0-14.1824-13.8752h-9.4208a14.336 14.336 0 0 0-14.1824 13.824v232.4992h-186.368s18.8416-54.528 18.8416-136.6016v-284.928h751.0016v284.928c0 82.0736 18.8928 136.6016 18.8928 136.6016h-176.9472V742.4a14.336 14.336 0 0 0-14.1824-13.8752z" p-id="30258"></path></svg>