<svg t="1618387790235" class="icon" viewBox="0 0 1024 1024" version="1.1" xmlns="http://www.w3.org/2000/svg" p-id="16447" width="200" height="200"><path d="M511.552 1021.76a507.264 507.264 0 0 1-361.152-149.568A507.52 507.52 0 0 1 0.768 511.04 507.52 507.52 0 0 1 150.4 149.888 507.52 507.52 0 0 1 511.552 0.256c136.448 0 264.64 53.12 361.088 149.632a507.52 507.52 0 0 1 149.632 361.152c0 136.384-53.12 264.704-149.632 361.152a507.392 507.392 0 0 1-361.088 149.568z m0-950.016a436.416 436.416 0 0 0-310.656 128.64 436.672 436.672 0 0 0-128.64 310.656c0 117.312 45.632 227.648 128.64 310.656a436.416 436.416 0 0 0 310.656 128.64 436.16 436.16 0 0 0 310.592-128.64 436.416 436.416 0 0 0 128.64-310.656 436.416 436.416 0 0 0-128.64-310.656 436.416 436.416 0 0 0-310.592-128.64z" p-id="16448"></path><path d="M562.048 511.04l183.296-183.232a35.712 35.712 0 0 0-50.56-50.56L511.68 460.608 328.256 277.248a35.712 35.712 0 0 0-50.432 50.496l183.232 183.232-183.232 183.232a35.712 35.712 0 0 0 50.432 50.56l183.296-183.296 183.232 183.232a35.648 35.648 0 1 0 50.496-50.496L562.048 511.04z" p-id="16449"></path></svg>
