<?xml version="1.0" standalone="no"?><!DOCTYPE svg PUBLIC "-//W3C//DTD SVG 1.1//EN" "http://www.w3.org/Graphics/SVG/1.1/DTD/svg11.dtd"><svg t="1619502740549" class="icon" viewBox="0 0 1024 1024" version="1.1" xmlns="http://www.w3.org/2000/svg" p-id="11789" xmlns:xlink="http://www.w3.org/1999/xlink" width="200" height="200"><defs><style type="text/css"></style></defs><path d="M799.168 861.568a62.464 62.464 0 0 1-62.336 62.4H287.168a62.464 62.464 0 0 1-62.336-62.4V199.168h574.336v662.4z m-449.536-774.4c0-7.168 5.568-12.8 12.8-12.8h299.968c7.168 0 12.8 5.632 12.8 12.8v37.632H349.632v-37.568z m636.8 37.632h-236.8v-37.568C749.568 39.232 710.4 0 662.4 0H362.432C314.432 0 275.2 39.168 275.2 87.232v37.568H37.632a37.568 37.568 0 1 0 0 75.2h112v661.568a137.6 137.6 0 0 0 137.6 137.6h449.6a137.6 137.6 0 0 0 137.6-137.6V199.168h112A37.568 37.568 0 0 0 1024 161.6a36.864 36.864 0 0 0-37.568-36.8zM512 811.2a37.568 37.568 0 0 0 37.568-37.632v-400a37.568 37.568 0 1 0-75.136 0v400c0 20.8 16.768 37.632 37.568 37.632m-175.232 0a37.568 37.568 0 0 0 37.632-37.632v-400a37.568 37.568 0 1 0-75.2 0v400a38.592 38.592 0 0 0 37.568 37.632m350.464 0a37.568 37.568 0 0 0 37.568-37.632v-400a37.568 37.568 0 1 0-75.2 0v400c0 20.8 16.768 37.632 37.632 37.632" p-id="11790"></path></svg>
