<?xml version="1.0" standalone="no"?><!DOCTYPE svg PUBLIC "-//W3C//DTD SVG 1.1//EN" "http://www.w3.org/Graphics/SVG/1.1/DTD/svg11.dtd"><svg class="icon" width="200px" height="200.00px" viewBox="0 0 1024 1024" version="1.1" xmlns="http://www.w3.org/2000/svg"><path d="M651.065224 0.108424H147.708988C113.579671 0.108424 87.985694 25.708424 87.985694 59.831718v904.336564c0 34.129318 25.6 59.723294 59.723294 59.723294h725.172706c34.129318 0 59.723294-25.6 59.723294-59.723294V281.648188L651.065224 0.108424z" fill="#5099F4" /><path d="M209.769412 489.712941h78.607059c34.737694 0 61.138824 9.637647 79.209411 28.912941 17.269459 18.269365 25.901176 44.471718 25.901177 78.607059 0 33.930541-8.631718 60.132894-25.901177 78.607059-18.070588 19.275294-44.471718 28.912941-79.209411 28.912941h-78.607059V489.712941z m35.237647 30.117647V674.635294h36.743529c26.702306 0 46.278776-6.222306 58.729412-18.672941 12.047059-12.649412 18.070588-32.225882 18.070588-58.729412 0-27.304659-6.023529-46.983529-18.070588-59.030588-12.245835-12.245835-31.822306-18.371765-58.729412-18.371765h-36.743529z m277.082353-34.334117c32.930635 0 58.831812 10.643576 77.703529 31.924705 18.070588 20.076424 27.105882 46.784753 27.105883 80.112942 0 32.930635-9.035294 59.530541-27.105883 79.811764-18.871718 21.082353-44.772894 31.623529-77.703529 31.62353-32.930635 0-58.831812-10.643576-77.70353-31.924706-17.871812-20.281224-26.804706-46.784753-26.804706-79.510588 0-32.930635 8.932894-59.530541 26.804706-79.811765 18.474165-21.485929 44.375341-32.225882 77.70353-32.225882z m0 31.021176c-22.088282 0-39.351718 7.529412-51.802353 22.588235-11.643482 14.257694-17.468235 33.731765-17.468235 58.428236 0 24.497694 5.824753 43.869365 17.468235 58.127058 12.047059 14.860047 29.316518 22.287059 51.802353 22.287059 22.287059 0 39.454118-7.125835 51.501176-21.383529 11.848282-14.257694 17.769412-33.930541 17.769412-59.030588 0-25.100047-5.921129-44.977694-17.769412-59.632942-11.848282-14.257694-29.015341-21.383529-51.501176-21.383529z m231.303529-31.021176c25.4976 0 46.381176 6.625882 62.644706 19.877647 15.4624 12.450635 24.895247 29.714071 28.310588 51.802353h-34.334117c-3.614118-14.052894-10.3424-24.395294-20.178824-31.021177-9.438871-6.427106-21.787106-9.637647-37.044706-9.637647-22.690635 0-39.652894 7.728188-50.898823 23.190588-10.438776 13.655341-15.661176 32.930635-15.661177 57.825883 0 25.298824 5.12 44.772894 15.36 58.428235 11.245929 14.655247 28.611765 21.985882 52.10353 21.985882 15.2576 0 27.810635-3.716518 37.647058-11.143529 10.24-8.029365 17.468235-20.281224 21.684706-36.74353h34.334118c-4.818824 25.298824-16.064753 44.977694-33.731765 59.030589-16.462306 13.251765-36.339953 19.877647-59.632941 19.877647-35.7376 0-62.445929-11.245929-80.112941-33.731765-15.2576-19.076518-22.889412-44.977694-22.889412-77.703529 0-32.328282 7.932988-58.325835 23.792941-78.004706 17.871812-22.690635 44.074165-34.032941 78.607059-34.032941z" fill="#FFFFFF" /><path d="M651.065224 221.930918c0 34.123294 25.6 59.717271 59.723294 59.71727h221.81647L651.065224 0.108424v221.822494z" fill="#7EB2F4" /></svg>