<?xml version="1.0" standalone="no"?><!DOCTYPE svg PUBLIC "-//W3C//DTD SVG 1.1//EN" "http://www.w3.org/Graphics/SVG/1.1/DTD/svg11.dtd"><svg class="icon" width="200px" height="200.00px" viewBox="0 0 1024 1024" version="1.1" xmlns="http://www.w3.org/2000/svg"><path d="M666.545694 16.889976l-2.029929 243.639718h243.657788z" fill="#5099F4" /><path d="M607.954824 317.114729V0.391529H165.357929C127.259106 0.391529 96.406588 30.900706 96.406588 68.632094v886.777977c0 37.641035 30.894682 68.1984 68.993506 68.1984h690.176c38.147012 0 69.077835-30.557365 69.077835-68.258636V317.114729H607.954824z" fill="#5099F4" /><path d="M142.173365 619.640471h70.746353c31.262118 0 55.018918 8.673882 71.28847 26.021647 15.540706 16.444235 23.311059 40.026353 23.311059 70.746353 0 30.539294-7.770353 54.121412-23.311059 70.746353-16.263529 17.347765-40.026353 26.021647-71.28847 26.021647H142.173365v-193.536z m31.707859 27.105882v139.324235h33.069176c24.033882 0 41.652706-5.601882 52.862494-16.805647 10.842353-11.384471 16.263529-29.003294 16.26353-52.85647 0-24.576-5.421176-42.285176-16.26353-53.12753-11.023059-11.023059-28.641882-16.534588-52.85647-16.534588h-33.069177z m249.374117-30.900706c29.635765 0 52.946824 9.577412 69.933177 28.732235 16.263529 18.070588 24.395294 42.104471 24.395294 72.101647 0 29.635765-8.131765 53.579294-24.395294 71.830589-16.986353 18.974118-40.297412 28.461176-69.933177 28.461176-29.635765 0-52.946824-9.577412-69.933176-28.732235-16.082824-18.251294-24.118212-42.104471-24.118212-71.55953 0-29.635765 8.035388-53.579294 24.124235-71.830588 16.624941-19.335529 39.936-29.003294 69.933177-29.003294z m0 27.919059c-19.877647 0-35.418353 6.776471-46.622117 20.329412-10.480941 12.830118-15.721412 30.358588-15.721412 52.585411 0 22.046118 5.240471 39.484235 15.721412 52.314353 10.842353 13.372235 26.383059 20.058353 46.622117 20.058353 20.058353 0 35.508706-6.415059 46.351059-19.245176 10.661647-12.830118 15.998494-30.539294 15.998494-53.12753s-5.330824-40.478118-15.99247-53.669647c-10.661647-12.830118-26.112-19.245176-46.357083-19.245176z m208.173177-27.919059c22.949647 0 41.743059 5.963294 56.380235 17.889882 13.914353 11.203765 22.407529 26.744471 25.479529 46.622118h-30.900706c-3.252706-12.649412-9.300329-21.955765-18.160941-27.919059-8.493176-5.782588-19.600565-8.673882-33.340235-8.673882-20.419765 0-35.683388 6.957176-45.808941 20.871529-9.396706 12.288-14.095059 29.635765-14.095059 52.043294 0 22.768941 4.608 40.297412 13.830024 52.585412 10.119529 13.191529 25.744565 19.787294 46.893176 19.787294 13.733647 0 25.021741-3.343059 33.876329-10.029176 9.216-7.228235 15.721412-18.251294 19.516236-33.069177h30.900706c-4.336941 22.768941-14.456471 40.478118-30.358589 53.12753-14.817882 11.926588-32.707765 17.889882-53.669647 17.889882-32.165647 0-56.199529-10.119529-72.101647-30.358588-13.733647-17.167059-20.600471-40.478118-20.60047-69.933177 0-29.093647 7.137882-52.495059 21.413647-70.204235 16.082824-20.419765 39.664941-30.629647 70.752376-30.629647z m101.104941 3.794824h38.767435l45.537882 68.306823 45.537883-68.306823h38.755388l-65.325176 93.515294L905.468988 813.176471h-38.755388l-49.874824-74.812236-49.874823 74.812236h-38.767435l69.126023-100.020706-64.783059-93.515294z" fill="#FFFFFF" /></svg>