<svg t="1618378875017" class="icon" viewBox="0 0 1068 1024" version="1.1" xmlns="http://www.w3.org/2000/svg" p-id="16928" width="200" height="200"><path d="M1024.489739 206.758957h-378.212174V64.645565c0-35.528348-31.432348-64.467478-70.032695-64.467478h-89.800348c-38.64487 0-70.032696 28.93913-70.032696 64.467478v142.113392h-378.434783A38.021565 38.021565 0 0 0 0 244.691478v186.991305c0.044522 20.925217 17.007304 37.932522 37.932522 37.977043h90.824348v506.078609c0 20.836174 16.918261 37.709913 37.754434 37.754435h729.666783a37.843478 37.843478 0 0 0 37.754435-37.754435V469.793391h90.557217a38.021565 38.021565 0 0 0 37.977044-37.977043V244.869565a38.021565 38.021565 0 0 0-37.977044-38.066087zM490.095304 73.861565h82.454261v132.897392h-82.454261V73.861565z m370.153739 865.947826H202.440348V469.793391h657.808695v470.016z m128.48974-543.788521H73.683478V280.531478h915.055305v115.489392z"   p-id="16929"></path><path d="M298.028522 646.678261H371.756522v266.24H298.028522v-266.24z m196.474435-74.618435h73.683478v340.858435h-73.683478v-340.858435z m186.100869 74.618435h73.683478v266.24h-73.683478v-266.24z"   p-id="16930"></path></svg>
