<?xml version="1.0" standalone="no"?><!DOCTYPE svg PUBLIC "-//W3C//DTD SVG 1.1//EN" "http://www.w3.org/Graphics/SVG/1.1/DTD/svg11.dtd"><svg class="icon" width="200px" height="200.00px" viewBox="0 0 1024 1024" version="1.1" xmlns="http://www.w3.org/2000/svg"><path d="M651.065224 0.108424H147.708988C113.579671 0.108424 87.985694 25.708424 87.985694 59.831718v904.336564c0 34.129318 25.6 59.723294 59.723294 59.723294h725.172706c34.129318 0 59.723294-25.6 59.723294-59.723294V281.648188L651.065224 0.108424z" fill="#FBB722" /><path d="M179.350588 489.712941h78.607059c34.737694 0 61.138824 9.637647 79.209412 28.912941 17.269459 18.269365 25.901176 44.471718 25.901176 78.607059 0 33.930541-8.631718 60.132894-25.901176 78.607059-18.070588 19.275294-44.471718 28.912941-79.209412 28.912941h-78.607059V489.712941z m35.237647 30.117647V674.635294h36.74353c26.702306 0 46.278776-6.222306 58.729411-18.672941 12.047059-12.649412 18.070588-32.225882 18.070589-58.729412 0-27.304659-6.023529-46.983529-18.070589-59.030588-12.245835-12.245835-31.822306-18.371765-58.729411-18.371765h-36.74353z m162.032941-30.117647h39.755295l40.357647 163.538824h1.204706l42.465882-163.538824h36.442353l42.465882 163.538824h1.204706l40.357647-163.538824h39.755294l-62.042353 215.04h-37.345882l-41.863529-161.731765h-1.204706l-42.164706 161.731765h-37.647059l-61.741177-215.04z m399.962353-4.21647c27.708235 0 49.495341 6.125929 65.355295 18.371764 15.4624 12.047059 25.100047 30.015247 28.912941 53.910589h-35.538824c-3.011765-13.655341-9.438871-23.991718-19.275294-31.021177-9.836424-6.824659-22.991812-10.24-39.454118-10.24-20.281224 0-36.243576 6.824659-47.887058 20.48-12.848188 14.257694-19.275294 34.635294-19.275295 61.138824 0 25.298824 5.722353 44.772894 17.167059 58.428235 12.450635 14.456471 31.725929 21.684706 57.825883 21.684706 10.24 0 19.877647-1.204706 28.912941-3.614118a94.0032 94.0032 0 0 0 23.190588-9.938823V620.423529h-56.922353v-30.117647h92.16v90.955294c-11.041129 8.836518-24.094118 15.661176-39.152941 20.48-15.661176 4.818824-33.027012 7.228235-52.103529 7.228236-34.135341 0-60.735247-10.842353-79.811765-32.527059-17.667012-20.076424-26.503529-46.1824-26.50353-78.305882 0-32.328282 8.836518-58.831812 26.50353-79.510589 18.474165-22.088282 43.772988-33.129412 75.89647-33.129411z" fill="#FFFFFF" /><path d="M651.065224 221.930918c0 34.123294 25.6 59.717271 59.723294 59.71727h221.81647L651.065224 0.108424v221.822494z" fill="#FACE6F" /></svg>