<?xml version="1.0" standalone="no"?><!DOCTYPE svg PUBLIC "-//W3C//DTD SVG 1.1//EN" "http://www.w3.org/Graphics/SVG/1.1/DTD/svg11.dtd"><svg t="1626942844762" class="icon" viewBox="0 0 1025 1024" version="1.1" xmlns="http://www.w3.org/2000/svg" p-id="5805" xmlns:xlink="http://www.w3.org/1999/xlink" width="200.1953125" height="200"><defs><style type="text/css">@font-face { font-family: feedback-iconfont; src: url("//at.alicdn.com/t/font_1031158_1uhr8ri0pk5.eot?#iefix") format("embedded-opentype"), url("//at.alicdn.com/t/font_1031158_1uhr8ri0pk5.woff2") format("woff2"), url("//at.alicdn.com/t/font_1031158_1uhr8ri0pk5.woff") format("woff"), url("//at.alicdn.com/t/font_1031158_1uhr8ri0pk5.ttf") format("truetype"), url("//at.alicdn.com/t/font_1031158_1uhr8ri0pk5.svg#iconfont") format("svg"); }
</style></defs><path d="M198.834951 126.402219c-56.809986 0-96.576976 45.447989-96.576976 96.576977v596.504854c0 56.809986 45.447989 96.576976 96.576976 96.576976H795.339806c56.809986 0 96.576976-45.447989 96.576976-96.576976V427.495146l102.257975-96.576977v528.332871c0 90.895978-79.533981 164.74896-170.429958 164.74896H164.74896C73.852982 1024 0 950.147018 0 859.25104V200.255201C0 109.359223 73.852982 24.144244 164.74896 24.144244h528.332871l-96.576977 102.257975h-397.669903z m369.26491 482.884882l-221.558946 62.490985L409.0319 455.900139l159.067961 153.386962z m22.723995-22.723994L431.755895 433.176144l346.540915-346.540915 159.067961 159.067961-346.540915 340.859917zM1011.217753 171.850208l-45.447989 45.447989L806.701803 58.230236l45.447989-45.447989c17.042996-17.042996 45.447989-17.042996 62.490985 0l96.576976 96.576976c17.042996 17.042996 17.042996 45.447989 0 62.490985z" p-id="5806"></path></svg>