<svg t="1618403625262" class="icon" viewBox="0 0 1408 1024" version="1.1" xmlns="http://www.w3.org/2000/svg" p-id="16698" width="200" height="200"><path d="M35.541333 562.645333h4.437334L260.992 24.874667V21.930667h907.52v2.986666l221.013333 537.728h5.888v452.266667H34.090667V574.464z" fill="#C8C8C8" p-id="16699"></path><path d="M57.642667 578.858667v393.386666L260.949333 402.005333v-315.306666z" fill="#FFFFFF" p-id="16700"></path><path d="M1146.453333 418.261333H283.008l-204.8 573.098667h1277.354667z" fill="#F5F5F5" p-id="16701"></path><path d="M284.544 45.525333V394.666667h860.416V45.525333H284.544z m883.968 41.216v315.306667l203.306667 558.378667v-380.117334L1168.512 86.741333z" fill="#FFFFFF" p-id="16702"></path><path d="M1395.413333 1014.954667V562.645333h-536.32l-1.450666 11.776c-5.888 78.08-76.586667 137.002667-154.709334 131.114667a143.445333 143.445333 0 0 1-131.114666-131.114667l-1.450667-11.776H32.597333v452.266667h1362.773334z" fill="#C8C8C8" p-id="16703"></path><path d="M1371.818667 991.36h-1314.133334V586.24h492.032v1.493333c13.269333 91.306667 98.730667 153.216 190.08 139.946667 72.192-10.282667 128.170667-67.754667 139.946667-139.946667v-1.493333h492.074667v405.162667z" fill="#FFFFFF" p-id="16704"></path></svg>
