<?xml version="1.0" standalone="no"?><!DOCTYPE svg PUBLIC "-//W3C//DTD SVG 1.1//EN" "http://www.w3.org/Graphics/SVG/1.1/DTD/svg11.dtd"><svg t="1595840499384" class="icon" viewBox="0 0 2047 1024" version="1.1" xmlns="http://www.w3.org/2000/svg" p-id="4796" xmlns:xlink="http://www.w3.org/1999/xlink" width="399.8046875" height="200"><defs><style type="text/css"></style></defs><path d="M2029.182701 32.960139c27.476738 40.276461 24.404805 101.544467-6.997182 136.871701a1295.502597 1295.502597 0 0 1-295.588262 240.464124l199.334348 258.554398a115.709493 115.709493 0 0 1 0 135.506397 69.971817 69.971817 0 0 1-53.417509 27.306075 67.24121 67.24121 0 0 1-52.905521-28.671379l-243.536057-315.726492c-80.211595 34.47392-163.153798 61.268006-247.802631 80.040932l45.055024 340.472623a117.074797 117.074797 0 0 1-11.946408 71.678447 75.091706 75.091706 0 0 1-48.468283 39.593809 51.71088 51.71088 0 0 1-11.946408 4.437237c-36.180549-0.170663-67.070547-33.620605-73.385076-79.187618L1180.987745 591.7107a1413.089383 1413.089383 0 0 1-310.265277 0.341326l-46.079002 349.005771c-5.290552 47.102979-36.863201 82.259551-74.067728 82.430214a47.785631 47.785631 0 0 1-13.482375 0 74.409054 74.409054 0 0 1-51.028228-40.105798 117.416123 117.416123 0 0 1-11.263756-75.603695l45.055024-340.472623a1368.375685 1368.375685 0 0 1-247.461305-80.040932l-243.365394 315.726492a67.070547 67.070547 0 0 1-53.417509 28.842042 70.825132 70.825132 0 0 1-49.833587-27.476738 115.709493 115.709493 0 0 1 0-135.506397l197.969044-257.189095A1295.67326 1295.67326 0 0 1 25.770108 169.83184C-5.631878 134.504606-8.703811 73.2366 18.94359 32.960139 46.079002-7.145659 93.864633-11.24157 125.437282 24.085665c462.15532 511.135592 1336.632373 511.135592 1796.739737 0 31.401986-35.327235 79.187618-31.231323 106.835019 8.874474z" p-id="4797"></path></svg>