<?xml version="1.0" standalone="no"?><!DOCTYPE svg PUBLIC "-//W3C//DTD SVG 1.1//EN" "http://www.w3.org/Graphics/SVG/1.1/DTD/svg11.dtd"><svg t="1595840494266" class="icon" viewBox="0 0 1365 1024" version="1.1" xmlns="http://www.w3.org/2000/svg" p-id="4677" xmlns:xlink="http://www.w3.org/1999/xlink" width="266.6015625" height="200"><defs><style type="text/css"></style></defs><path d="M680.96 0c257.479111 0 435.655111 136.192 539.761778 250.311111C1295.018667 332.003556 1365.333333 439.978667 1365.333333 472.746667c0 22.414222-47.559111 141.425778-158.151111 254.293333-134.144 136.874667-314.026667 209.351111-519.964444 209.351111-277.617778 0-452.152889-128.455111-549.546667-236.088889C42.211556 595.057778 0 493.454222 0 472.632889c0-30.72 68.039111-137.671111 137.216-215.722667C241.208889 139.719111 419.953778 0 681.073778 0z m0 93.866667c-226.076444 0-382.293333 122.538667-473.543111 225.28a832.398222 832.398222 0 0 0-107.178667 150.186666l-2.503111 4.778667 2.275556 4.892444c13.994667 30.264889 46.421333 91.249778 107.178666 158.151112C330.410667 773.347556 491.975111 842.296889 687.217778 842.296889c182.840889 0 335.189333-60.871111 452.835555-181.134222a626.119111 626.119111 0 0 0 125.952-181.816889l2.048-4.778667-2.503111-4.551111a829.098667 829.098667 0 0 0-114.119111-156.330667C1059.953778 213.333333 904.192 93.866667 680.96 93.866667z m5.916444 89.315555a283.534222 283.534222 0 0 1 283.306667 283.306667 283.534222 283.534222 0 0 1-283.306667 283.192889 283.534222 283.534222 0 0 1-283.192888-283.306667 283.534222 283.534222 0 0 1 283.306666-283.192889z m0 93.866667c-104.448 0-189.326222 84.992-189.326222 189.44 0 104.334222 84.878222 189.326222 189.326222 189.326222 104.448 0 189.326222-84.992 189.326223-189.326222 0-104.448-84.878222-189.44-189.326223-189.44z m-61.326222 72.362667a61.781333 61.781333 0 1 1 0 123.448888 61.781333 61.781333 0 0 1 0-123.448888z" p-id="4678"></path></svg>