<?xml version="1.0" standalone="no"?><!DOCTYPE svg PUBLIC "-//W3C//DTD SVG 1.1//EN" "http://www.w3.org/Graphics/SVG/1.1/DTD/svg11.dtd"><svg t="1624502400058" class="icon" viewBox="0 0 1024 1024" version="1.1" xmlns="http://www.w3.org/2000/svg" p-id="15197" xmlns:xlink="http://www.w3.org/1999/xlink" width="200" height="200"><defs><style type="text/css"></style></defs><path d="M512 199.111111C227.555556 199.111111 0 409.6 0 512c0 96.711111 227.555556 312.888889 512 312.888889s512-216.177778 512-312.888889c0-102.4-227.555556-312.888889-512-312.888889z m0 568.888889c-261.688889 0-449.422222-204.8-449.422222-256 0-62.577778 193.422222-256 449.422222-256 261.688889 0 449.422222 193.422222 449.422222 256s-187.733333 256-449.422222 256z m0-472.177778c-113.777778 0-210.488889 91.022222-210.488889 199.111111S398.222222 694.044444 512 694.044444s210.488889-91.022222 210.488889-199.111111S625.777778 295.822222 512 295.822222z m0 347.022222c-85.333333 0-147.911111-62.577778-147.911111-142.222222S426.666667 352.711111 512 352.711111s147.911111 62.577778 147.911111 142.222222-62.577778 147.911111-147.911111 147.911111z m0-261.688888c-68.266667 0-119.466667 51.2-119.466667 113.777777 0 17.066667 11.377778 28.444444 28.444445 28.444445s28.444444-11.377778 28.444444-28.444445c0-34.133333 28.444444-56.888889 62.577778-56.888889 17.066667 0 28.444444-11.377778 28.444444-28.444444 0-11.377778-11.377778-28.444444-28.444444-28.444444z" p-id="15198"></path></svg>