<svg t="1618395519752" class="icon" viewBox="0 0 1024 1024" version="1.1" xmlns="http://www.w3.org/2000/svg" p-id="16573" width="200" height="200"><path d="M716.5952 0l168.2944 77.5168 4.5056 7.68v575.5904l96.0512 36.864 4.9152 7.8848-0.1024 185.4976h26.5216l7.2192 8.3968v116.3264l-7.2192 8.2432H7.3216L0 1015.6544v-116.2752l7.2192-8.2944 26.4192-0.0512 2.9184-269.6704 134.6048-116.3264 7.5264-0.7168 56.7808 32.7168V240.3328l3.9936-7.3728 134.656-77.5168 7.6288 0.7168 137.472 122.9312-0.1024 227.4816 52.8384 30.464V85.1968l4.0448-7.3728L710.656 0.3072 716.5952 0z m259.2768 946.4832H48.0768v22.0672H975.872v-22.0672zM100.9152 633.2928l-19.2 14.0288v243.7632h19.2V633.344zM715.776 59.2384l-28.4672 16.3328 0.1536 591.2064-9.5232 7.8848-100.9152-38.7584-4.9152-7.8848v-29.184l-96.9216-55.808-3.9936-7.4752 2.9184-230.4-100.9152-87.3472-22.272 12.8v345.2416l56.9856-32.768 10.4448 7.4752-0.1024 340.48h523.9808v-151.552l-96.0512-36.864-4.9664-7.8848V117.1968l-125.44-57.9584zM179.4048 566.784l-30.4128 22.6304v301.6704H235.52v-292.1472l-56.1664-32.1536h0.0512z m123.392-308.3776l-19.1488 11.008v621.568h86.528v-264.3968l-56.832 32.9216-10.4448-7.3216V258.2528l-0.1024 0.1024z m336.64-155.2384l-19.2512 11.1104V593.92l19.2512 7.3216V103.1168z" fill="#323C57" p-id="16574"></path></svg>
