<?xml version="1.0" standalone="no"?><!DOCTYPE svg PUBLIC "-//W3C//DTD SVG 1.1//EN" "http://www.w3.org/Graphics/SVG/1.1/DTD/svg11.dtd"><svg t="1628649944275" class="icon" viewBox="0 0 1024 1024" version="1.1" xmlns="http://www.w3.org/2000/svg" p-id="40422" xmlns:xlink="http://www.w3.org/1999/xlink" width="200" height="200"><defs><style type="text/css"></style></defs><path d="M842.77 959.56H181.43c-64.59 0-117.13-50.86-117.13-113.43v-530.9c0-62.57 52.54-113.5 117.13-113.5H289.5c19.04 0 34.45 15.41 34.45 34.45s-15.41 34.45-34.45 34.45H181.43c-26.61 0-48.24 19.98-48.24 44.61v530.89c0 24.56 21.63 44.54 48.24 44.54h661.35c26.61 0 48.24-19.98 48.24-44.54v-530.9c0-24.62-21.63-44.61-48.24-44.61H734.67c-19.04 0-34.45-15.41-34.45-34.45s15.41-34.45 34.45-34.45h108.11c64.59 0 117.13 50.93 117.13 113.5v530.89c0 62.59-52.55 113.45-117.14 113.45z" p-id="40423"></path><path d="M512.1 683.99c-19.04 0-34.45-15.41-34.45-34.45V98.39c0-19.04 15.41-34.45 34.45-34.45 19.04 0 34.45 15.41 34.45 34.45v551.15c0 19.04-15.41 34.45-34.45 34.45z" p-id="40424"></path><path d="M512.1 741.1c-9.15 0-17.9-3.63-24.35-10.09l-194.88-194.9c-13.46-13.46-13.46-35.25 0-48.71s35.25-13.46 48.71 0L512.1 657.95 682.62 487.4c13.46-13.46 35.25-13.46 48.71 0s13.46 35.25 0 48.71l-194.88 194.9a34.388 34.388 0 0 1-24.35 10.09z" p-id="40425"></path></svg>