<?xml version="1.0" standalone="no"?><!DOCTYPE svg PUBLIC "-//W3C//DTD SVG 1.1//EN" "http://www.w3.org/Graphics/SVG/1.1/DTD/svg11.dtd"><svg t="1597806934745" class="icon" viewBox="0 0 1204 1024" version="1.1" xmlns="http://www.w3.org/2000/svg" p-id="30777" xmlns:xlink="http://www.w3.org/1999/xlink" width="235.15625" height="200"><defs><style type="text/css"></style></defs><path d="M938.511661 972.739765a201.185882 201.185882 0 0 1-12.047059-0.301177c-74.209882-4.035765-140.348235-54.512941-196.668235-150.287059-41.984-71.258353-79.811765-169.923765-112.519529-293.104941-21.985882-82.582588-49.332706-185.344-84.87153-272.384-46.923294-115.049412-87.823059-151.853176-113.844706-162.454588-11.685647-4.818824-30.840471-9.035294-61.44 9.155765-39.755294 23.612235-101.737412 88.666353-171.309176 264.31247-46.622118 117.639529-77.101176 235.700706-89.99153 286.117647-5.240471 20.299294-6.445176 24.997647-8.673882 30.117647a45.056 45.056 0 1 1-83.727059-33.189647l5.059765-19.395764C21.911191 579.282824 53.414249 457.366588 102.024132 334.426353 165.391661 174.561882 235.686249 70.716235 311.040602 25.901176c59.994353-35.779765 110.049882-27.949176 141.552942-15.119058 134.565647 54.874353 202.209882 309.368471 251.663058 495.013647 85.534118 321.776941 178.898824 374.061176 226.966589 376.651294 38.550588 2.048 75.053176-11.926588 105.291294-40.538353 48.911059-46.381176 77.040941-126.915765 77.040941-220.882824a45.056 45.056 0 0 1 90.051765 0c0 120.289882-37.345882 222.027294-105.231059 286.298353a231.544471 231.544471 0 0 1-159.924706 65.41553" p-id="30778"></path></svg>