<?xml version="1.0" standalone="no"?><!DOCTYPE svg PUBLIC "-//W3C//DTD SVG 1.1//EN" "http://www.w3.org/Graphics/SVG/1.1/DTD/svg11.dtd"><svg t="1597805841305" class="icon" viewBox="0 0 1024 1024" version="1.1" xmlns="http://www.w3.org/2000/svg" p-id="14655" xmlns:xlink="http://www.w3.org/1999/xlink" width="200" height="200"><defs><style type="text/css"></style></defs><path d="M512 0c282.7776 0 512 229.2224 512 512s-229.2224 512-512 512S0 794.7776 0 512 229.2224 0 512 0zM441.344 253.7984H279.6544a26.9824 26.9824 0 0 0-26.9824 26.9312v161.8432a26.9824 26.9824 0 0 0 53.8624 0V347.392l184.9344 183.808c1.1264 1.1264 2.4576 1.6896 3.7376 2.5088l183.3984 182.5792H582.656a26.9824 26.9824 0 0 0 0 53.9648h161.8432a26.9824 26.9824 0 0 0 26.9824-26.9824h-0.1024v-161.792a26.9824 26.9824 0 0 0-53.8624 0v97.3312l-194.9184-193.8944c-1.1776-1.1264-2.5088-1.6384-3.7376-2.4064L343.0912 307.712h98.304a26.9824 26.9824 0 0 0 0-53.9136z" fill="#666666" p-id="14656"></path></svg>