<svg t="1618365825697" class="icon" viewBox="0 0 1024 1024" version="1.1" xmlns="http://www.w3.org/2000/svg" p-id="16548" width="200" height="200"><path d="M662.016 0a32.028444 32.028444 0 0 1 5.745778 63.488l-5.745778 0.512H152.007111c-45.795556 0-83.342222 34.872889-87.608889 79.530667l-0.398222 8.476444v719.985778c0 45.795556 34.872889 83.342222 79.530667 87.608889l8.476444 0.398222h719.985778c45.795556 0 83.342222-34.872889 87.608889-79.530667l0.398222-8.476444V361.984a31.971556 31.971556 0 0 1 63.488-5.745778l0.512 5.745778v510.008889a152.007111 152.007111 0 0 1-141.596444 151.665778l-10.410667 0.341333H152.007111a152.007111 152.007111 0 0 1-151.665778-141.596444L0 872.049778V152.007111C0 71.566222 62.577778 5.688889 141.596444 0.341333L151.950222 0h510.008889z" fill="#1890FF" p-id="16549"></path><path d="M1012.736 15.758222a32.028444 32.028444 0 0 1 0 45.283556L560.241778 513.536a31.971556 31.971556 0 1 1-45.283556-45.169778L967.566222 15.758222c12.515556-12.515556 32.711111-12.515556 45.226667 0h-0.056889z" fill="#004E97" p-id="16550"></path></svg>
