<?xml version="1.0" standalone="no"?>
<!DOCTYPE svg PUBLIC "-//W3C//DTD SVG 1.1//EN" "http://www.w3.org/Graphics/SVG/1.1/DTD/svg11.dtd">
<svg
  t="1617944604560"
  class="icon"
  viewBox="0 0 1024 1024"
  version="1.1"
  xmlns="http://www.w3.org/2000/svg"
  p-id="4093"
  xmlns:xlink="http://www.w3.org/1999/xlink"
  width="200"
  height="200"
>
  <defs><style type="text/css"></style></defs>
  <path
    d="M906.944 1024H117.12A117.056 117.056 0 0 1 0 906.944V117.12C0 52.416 52.416 0 117.056 0H906.88C971.584 0 1024 52.416 1024 117.056v789.888c0 64.64-52.416 117.056-117.056 117.056z m29.312-877.696a58.56 58.56 0 0 0-58.56-58.56H146.304a58.56 58.56 0 0 0-58.56 58.56v731.392c0 32.32 26.24 58.56 58.56 58.56h731.392c32.32 0 58.56-26.24 58.56-58.56V146.304zM629.376 369.216L555.904 295.808v431.744L627.2 656.192a43.904 43.904 0 0 1 62.08 62.08l-136.064 136a42.88 42.88 0 0 1-8.128 12.352 43.52 43.52 0 0 1-33.152 12.416 43.328 43.328 0 0 1-33.088-12.416 40.768 40.768 0 0 1-8.192-12.352L334.72 718.272a43.904 43.904 0 0 1 62.08-62.08l71.296 71.36V295.808L394.688 369.216a43.904 43.904 0 1 1-62.08-62.08l148.352-148.288a43.84 43.84 0 0 1 62.08 0L691.392 307.2a43.84 43.84 0 1 1-62.08 62.08z"
    p-id="4094"
  ></path>
</svg>
