<?xml version="1.0" standalone="no"?><!DOCTYPE svg PUBLIC "-//W3C//DTD SVG 1.1//EN" "http://www.w3.org/Graphics/SVG/1.1/DTD/svg11.dtd"><svg t="1597805811289" class="icon" viewBox="0 0 1077 1024" version="1.1" xmlns="http://www.w3.org/2000/svg" p-id="14135" xmlns:xlink="http://www.w3.org/1999/xlink" width="210.3515625" height="200"><defs><style type="text/css"></style></defs><path d="M483.112421 19.348211a87.848421 87.848421 0 0 1 111.562105 1.293473l470.447158 397.042527a36.217263 36.217263 0 1 1-47.050105 55.242105l-57.128421-48.181895v476.429474c0 48.020211-39.235368 87.201684-87.471158 87.201684H723.267368a87.471158 87.471158 0 0 1-87.471157-87.201684v-243.388632a14.767158 14.767158 0 0 0-14.874948-14.821052H441.020632a14.767158 14.767158 0 0 0-14.874948 14.821052v243.388632c0 48.020211-39.289263 87.201684-87.471158 87.201684H183.511579a87.471158 87.471158 0 0 1-87.471158-87.201684V423.936l-36.971789 29.749895a36.325053 36.325053 0 0 1-50.984421-5.389474 36.001684 36.001684 0 0 1 5.389473-50.876632z" fill="#666666" p-id="14136"></path></svg>