<?xml version="1.0" standalone="no"?><!DOCTYPE svg PUBLIC "-//W3C//DTD SVG 1.1//EN" "http://www.w3.org/Graphics/SVG/1.1/DTD/svg11.dtd"><svg t="1624502331475" class="icon" viewBox="0 0 1024 1024" version="1.1" xmlns="http://www.w3.org/2000/svg" p-id="4289" xmlns:xlink="http://www.w3.org/1999/xlink" width="200" height="200"><defs><style type="text/css"></style></defs><path d="M591.997143 500.608407h147.889575a43.299025 43.299025 0 1 1 0 86.52491H444.180708V291.500446a43.299025 43.299025 0 1 1 86.59805 0v147.889576L946.43477 23.587729a43.299025 43.299025 0 1 1 61.218385 61.218385L591.924003 500.608407z" fill="#228BFF" p-id="4290"></path><path d="M937.43852 565.849505a43.299025 43.299025 0 1 1 86.52491 0v281.004822A177.145673 177.145673 0 0 1 846.817757 1024H177.145673A177.145673 177.145673 0 0 1 0 846.854327V177.182243A177.145673 177.145673 0 0 1 177.145673 0.03657h248.164852a43.299025 43.299025 0 1 1 0 86.52491H177.218814a90.693904 90.693904 0 0 0-90.693904 90.693904v669.598943c0 50.027928 40.592836 90.620764 90.693904 90.620763h669.598943a90.693904 90.693904 0 0 0 90.620763-90.693904v-280.85854z" fill="#666666" p-id="4291"></path></svg>