<?xml version="1.0" standalone="no"?><!DOCTYPE svg PUBLIC "-//W3C//DTD SVG 1.1//EN" "http://www.w3.org/Graphics/SVG/1.1/DTD/svg11.dtd"><svg class="icon" width="200px" height="200.00px" viewBox="0 0 1024 1024" version="1.1" xmlns="http://www.w3.org/2000/svg"><path d="M651.065224 0.108424H147.708988C113.579671 0.108424 87.985694 25.708424 87.985694 59.831718v904.336564c0 34.129318 25.6 59.723294 59.723294 59.723294h725.172706c34.129318 0 59.723294-25.6 59.723294-59.723294V281.648188L651.065224 0.108424z" fill="#FF403F" /><path d="M336.263529 489.712941h35.237647v145.468235c0 24.497694-5.12 42.767059-15.36 54.814118-11.444706 12.649412-29.617694 18.974118-54.512941 18.974118-21.684706 0-38.147012-6.023529-49.392941-18.070588-11.444706-12.047059-17.167059-28.611765-17.167059-49.694118v-6.927059h35.237647v6.625882c0 24.696471 10.643576 37.044706 31.924706 37.044706 11.848282 0 20.48-3.511718 25.901177-10.541176 5.421176-7.029459 8.131765-18.172988 8.131764-33.430588V489.712941z m77.402353 0h89.148236c52.001129 0 78.004706 21.985882 78.004706 65.957647 0 44.375341-26.202353 66.56-78.607059 66.56h-53.308236V704.752941h-35.237647V489.712941z m35.237647 30.117647v72.282353h51.2c15.4624 0 26.907106-2.812988 34.334118-8.432941 7.228235-5.824753 10.842353-15.161224 10.842353-28.009412 0-12.649412-3.716518-21.787106-11.143529-27.407059-7.029459-5.619953-18.371765-8.432941-34.032942-8.432941h-51.2z m255.397647-34.334117c27.708235 0 49.495341 6.125929 65.355295 18.371764 15.4624 12.047059 25.100047 30.015247 28.912941 53.910589h-35.538824c-3.011765-13.655341-9.438871-23.991718-19.275294-31.021177-9.836424-6.824659-22.991812-10.24-39.454118-10.24-20.281224 0-36.243576 6.824659-47.887058 20.48-12.848188 14.257694-19.275294 34.635294-19.275294 61.138824 0 25.298824 5.722353 44.772894 17.167058 58.428235 12.450635 14.456471 31.725929 21.684706 57.825883 21.684706 10.24 0 19.877647-1.204706 28.912941-3.614118a94.0032 94.0032 0 0 0 23.190588-9.938823V620.423529h-56.922353v-30.117647h92.16v90.955294c-11.041129 8.836518-24.094118 15.661176-39.152941 20.48-15.661176 4.818824-33.027012 7.228235-52.103529 7.228236-34.135341 0-60.735247-10.842353-79.811765-32.527059-17.667012-20.076424-26.503529-46.1824-26.50353-78.305882 0-32.328282 8.836518-58.831812 26.50353-79.510589 18.474165-22.088282 43.772988-33.129412 75.89647-33.129411z" fill="#FFFFFF" /><path d="M651.065224 221.930918c0 34.123294 25.6 59.717271 59.723294 59.71727h221.81647L651.065224 0.108424v221.822494z" fill="#FF9291" /></svg>