<svg t="1618365885334" class="icon" viewBox="0 0 1024 1024" version="1.1" xmlns="http://www.w3.org/2000/svg" p-id="16802" width="200" height="200"><path d="M785.294222 157.013333c43.178667 0 78.506667 35.384889 78.506667 78.563556v706.730667c0 43.235556-35.328 78.506667-78.506667 78.506666H78.506667c-43.178667 0-78.506667-35.271111-78.506667-78.506666V235.576889c0-43.235556 35.328-78.506667 78.506667-78.506667h706.787555z m0 78.563556H78.506667v706.730667h706.787555V235.576889z" fill="#1890FF" p-id="16803"></path><path d="M628.224 706.730667c23.552 0 39.253333 15.701333 39.253333 39.253333 0 23.608889-15.701333 39.253333-39.253333 39.253333H235.52c-23.552 0-39.253333-15.644444-39.253333-39.253333 0-23.552 15.701333-39.253333 39.253333-39.253333h392.647111zM903.054222 0c66.787556 0 117.76 51.029333 117.76 117.76v628.224c0 23.608889-15.644444 39.253333-39.253333 39.253333-23.552 0-39.253333-15.644444-39.253333-39.253333V117.816889c0-23.608889-15.701333-39.253333-39.253334-39.253333H274.830222c-23.552 0-39.253333-15.758222-39.253333-39.253334 0-23.608889 15.701333-39.310222 39.253333-39.310222h628.224z m-274.830222 549.717333c23.552 0 39.253333 15.701333 39.253333 39.253334 0 23.552-15.701333 39.253333-39.253333 39.253333H235.52c-23.552 0-39.253333-15.701333-39.253333-39.253333 0-23.552 15.701333-39.253333 39.253333-39.253334h392.647111z m0-157.070222c23.552 0 39.253333 15.701333 39.253333 39.253333 0 23.552-15.701333 39.253333-39.253333 39.253334H235.52c-23.552 0-39.253333-15.701333-39.253333-39.253334 0-23.552 15.701333-39.253333 39.253333-39.253333h392.647111z" fill="#004E97" p-id="16804"></path></svg>
