<svg t="1618365857292" class="icon" viewBox="0 0 1024 1024" version="1.1" xmlns="http://www.w3.org/2000/svg" p-id="16674" width="200" height="200"><path d="M903.281778 1.137778H110.819556A85.162667 85.162667 0 0 0 28.615111 88.917333v846.449778a85.162667 85.162667 0 0 0 82.204445 87.779556H568.32a308.451556 308.451556 0 0 1-60.188444-61.326223H110.819556a25.6 25.6 0 0 1-24.689778-26.453333V88.917333a25.6 25.6 0 0 1 24.689778-26.453333h792.462222a25.6 25.6 0 0 1 24.689778 26.453333v415.857778c21.845333 17.806222 41.187556 38.456889 57.571555 61.44V89.429333A85.162667 85.162667 0 0 0 903.281778 1.592889V1.137778z" fill="#1890FF" p-id="16675"></path><path d="M667.022222 553.756444a145.066667 145.066667 0 1 1 0 290.019556 145.066667 145.066667 0 0 1 0-290.019556m0-57.571555a202.524444 202.524444 0 1 0 202.581334 202.524444 202.524444 202.524444 0 0 0-202.524445-203.036444v0.568889z" fill="#004E97" p-id="16676"></path><path d="M945.720889 1010.176a28.103111 28.103111 0 0 1-20.081778-8.248889l-156.672-153.6a28.785778 28.785778 0 0 1 40.277333-40.220444l156.728889 153.6a28.785778 28.785778 0 0 1-20.252444 49.265777v-0.796444z" fill="#004E97" p-id="16677"></path><path d="M779.150222 285.411556H234.951111a28.785778 28.785778 0 0 1 0-57.571556h544.199111a28.785778 28.785778 0 0 1 0 57.571556z m-315.676444 224.711111H234.951111a28.785778 28.785778 0 1 1 0-57.457778h228.522667a28.785778 28.785778 0 0 1 0 57.457778z m-89.884445 224.654222H234.951111a28.785778 28.785778 0 0 1 0-57.571556h138.581333a28.785778 28.785778 0 0 1 0 57.571556z" fill="#1890FF" p-id="16678"></path></svg>
