<?xml version="1.0" standalone="no"?><!DOCTYPE svg PUBLIC "-//W3C//DTD SVG 1.1//EN" "http://www.w3.org/Graphics/SVG/1.1/DTD/svg11.dtd"><svg t="1597805846993" class="icon" viewBox="0 0 1204 1024" version="1.1" xmlns="http://www.w3.org/2000/svg" p-id="14785" xmlns:xlink="http://www.w3.org/1999/xlink" width="235.15625" height="200"><defs><style type="text/css"></style></defs><path d="M1010.989176 133.300706H60.416C27.105882 133.300706 0 160.406588 0 193.776941V933.647059c0 33.310118 27.105882 60.416 60.416 60.416h950.573176c33.370353 0 60.416-27.105882 60.416-60.416V193.716706a60.416 60.416 0 0 0-60.416-60.416zM950.633412 254.192941v544.64753l-138.059294-167.695059a15.119059 15.119059 0 0 0-20.48-2.529883l-160.64753 117.338353-275.757176-268.468706a15.600941 15.600941 0 0 0-11.926588-4.21647 14.938353 14.938353 0 0 0-10.962824 6.384941l-212.028235 303.585882V254.132706h829.861647z m208.775529 520.914824a45.296941 45.296941 0 0 1-45.236706-45.176471V90.413176H173.598118a45.176471 45.176471 0 1 1 0-90.473411h985.810823c24.997647 0 45.296941 20.239059 45.296941 45.236706v684.634353c0 24.937412-20.299294 45.176471-45.296941 45.17647z" fill="#666666" p-id="14786"></path></svg>