<?xml version="1.0" standalone="no"?><!DOCTYPE svg PUBLIC "-//W3C//DTD SVG 1.1//EN" "http://www.w3.org/Graphics/SVG/1.1/DTD/svg11.dtd"><svg t="1597806942898" class="icon" viewBox="0 0 1024 1024" version="1.1" xmlns="http://www.w3.org/2000/svg" p-id="30907" xmlns:xlink="http://www.w3.org/1999/xlink" width="200" height="200"><defs><style type="text/css"></style></defs><path d="M1011.456 713.216l-103.5776 103.5776a25.6 25.6 0 0 1-36.1984-36.1984L935.424 716.8H510.208A179.3024 179.3024 0 0 1 358.4 868.608V998.4a25.6 25.6 0 1 1-51.2 0v-129.792A179.3024 179.3024 0 0 1 155.392 716.8H25.6a25.6 25.6 0 1 1 0-51.2h129.792A179.3024 179.3024 0 0 1 307.2 513.792V89.2416L243.712 152.6784a25.6 25.6 0 0 1-36.1472-36.1984l102.4-102.4A25.6 25.6 0 0 1 339.7632 1.024c4.608 1.024 8.96 3.328 12.544 6.912l108.5952 108.544a25.6 25.6 0 0 1-36.1984 36.2496L358.4 86.3232v427.52A179.3024 179.3024 0 0 1 510.208 665.6h427.52l-66.048-66.048a25.6 25.6 0 0 1 36.1984-36.1472l108.5952 108.544A25.4976 25.4976 0 0 1 1024 691.2a25.6 25.6 0 0 1-12.544 22.016zM332.8 819.2a128 128 0 1 0 0-256 128 128 0 0 0 0 256z m0-51.2a76.8 76.8 0 1 1 0-153.6 76.8 76.8 0 0 1 0 153.6z" p-id="30908"></path></svg>