<?xml version="1.0" standalone="no"?><!DOCTYPE svg PUBLIC "-//W3C//DTD SVG 1.1//EN" "http://www.w3.org/Graphics/SVG/1.1/DTD/svg11.dtd"><svg class="icon" width="200px" height="200.00px" viewBox="0 0 1024 1024" version="1.1" xmlns="http://www.w3.org/2000/svg"><path d="M651.065224 0.108424H147.708988C113.579671 0.108424 87.985694 25.708424 87.985694 59.831718v904.336564c0 34.129318 25.6 59.723294 59.723294 59.723294h725.172706c34.129318 0 59.723294-25.6 59.723294-59.723294V281.648188L651.065224 0.108424z" fill="#9CA6B4" /><path d="M196.818824 489.712941h41.261176l73.185882 168.658824h1.204706l72.884706-168.658824h41.261177V704.752941h-35.237647V556.574118h-1.204706l-63.247059 148.178823h-30.418824l-63.247059-148.178823h-1.204705V704.752941h-35.237647V489.712941z m271.962352 0h78.607059c34.737694 0 61.138824 9.637647 79.209412 28.912941 17.269459 18.269365 25.901176 44.471718 25.901177 78.607059 0 33.930541-8.631718 60.132894-25.901177 78.607059-18.070588 19.275294-44.471718 28.912941-79.209412 28.912941h-78.607059V489.712941z m35.237648 30.117647V674.635294h36.743529c26.702306 0 46.278776-6.222306 58.729412-18.672941 12.047059-12.649412 18.070588-32.225882 18.070588-58.729412 0-27.304659-6.023529-46.983529-18.070588-59.030588-12.245835-12.245835-31.822306-18.371765-58.729412-18.371765h-36.743529z m181.609411-30.117647h98.484706c21.485929 0 38.249412 5.12 50.296471 15.36 11.245929 9.637647 16.865882 22.588235 16.865882 38.851765 0 11.848282-2.909365 22.088282-8.734118 30.72-5.619953 7.631812-13.854118 13.552941-24.69647 17.769412 14.052894 2.608188 24.696471 8.330541 31.924706 17.167058 7.029459 8.631718 10.541176 20.178824 10.541176 34.635295 0 21.684706-7.427012 37.647059-22.287059 47.887058-12.649412 8.432941-30.521224 12.649412-53.609411 12.649412h-98.785883V489.712941z m35.237647 28.912941v61.44h53.910589c14.655247 0 25.298824-2.511812 31.924705-7.529411 6.222306-5.2224 9.336471-13.354165 9.336471-24.395295 0-10.24-3.114165-17.667012-9.336471-22.287058-6.625882-4.818824-17.064659-7.228235-31.322352-7.228236h-54.512942z m0 90.352942v66.861176h58.428236c13.450541 0 23.895341-2.108235 31.322353-6.324706 9.637647-5.421176 14.456471-14.052894 14.45647-25.901176 0-12.245835-3.511718-21.082353-10.541176-26.50353-7.228235-5.421176-18.672941-8.131765-34.334118-8.131764h-59.331765z" fill="#FFFFFF" /><path d="M651.065224 221.930918c0 34.123294 25.6 59.717271 59.723294 59.71727h221.81647L651.065224 0.108424v221.822494z" fill="#BBC7D7" /></svg>