<svg t="1618387763677" class="icon" viewBox="0 0 1024 1024" version="1.1" xmlns="http://www.w3.org/2000/svg" p-id="16322" width="200" height="200"><path d="M510.272 0.448c284.416 0 509.824 230.72 509.824 509.824 0 279.04-225.408 509.824-509.824 509.824-284.416 0-509.824-225.408-509.824-509.824C0.448 225.856 231.168 0.448 510.272 0.448z m0 80.448c-236.16 0-434.688 193.28-434.688 434.752a432.896 432.896 0 0 0 434.688 434.688 432.896 432.896 0 0 0 434.688-434.688 432.896 432.896 0 0 0-434.688-434.752z m300.544 386.432c16.128 0 32.192 10.752 37.568 32.192v16.128c0 16.064-16.128 32.192-32.192 37.568H215.04a40.32 40.32 0 0 1-37.568-26.88V504.96c0-16.064 16.064-32.192 32.192-37.568h601.088z" fill="#1890FF" p-id="16323"></path></svg>
