<svg t="1618467841632" class="icon" viewBox="0 0 1024 1024" version="1.1" xmlns="http://www.w3.org/2000/svg" p-id="17331" width="200" height="200"><path d="M335.104 54.9376H76.3392A76.288 76.288 0 0 0 0.1536 131.1232v258.816c0 41.984 34.2016 76.1856 76.1856 76.1856h258.7648a76.288 76.288 0 0 0 76.1856-76.1856V131.072a76.0832 76.0832 0 0 0-76.1856-76.1856zM337.92 390.144c0 1.3824-1.2288 2.56-2.56 2.56H76.288a2.6624 2.6624 0 0 1-2.56-2.56V131.072c0-1.3312 1.1776-2.56 2.56-2.56h258.7648c1.3824 0 2.56 1.2288 2.56 2.56V390.144H337.92zM997.376 206.6944L814.5408 23.6544a76.1856 76.1856 0 0 0-107.776 0l-183.04 183.04c-14.336 14.336-22.3232 33.4336-22.3232 53.9136 0 20.3264 7.9872 39.5264 22.3232 53.9136l183.04 183.04c14.848 14.848 34.3552 22.272 53.9136 22.272 19.5072 0 39.0656-7.4752 53.8624-22.272l182.9376-183.04c14.336-14.336 22.272-33.4336 22.272-53.9136 0-20.48-7.7824-39.5264-22.272-53.9136z m-51.8656 55.7568L762.368 445.44a2.7648 2.7648 0 0 1-3.6352 0l-183.1936-183.04c-0.9216-0.9216-0.9216-2.9184 0-3.6864l183.04-183.04a2.816 2.816 0 0 1 1.8432-0.768 2.56 2.56 0 0 1 1.792 0.768l183.0912 183.04c0.9216 0.9216 0.9216 2.9184 0.1536 3.6864zM335.104 585.6256H76.3392a76.288 76.288 0 0 0-76.1856 76.1856v258.816c0 41.984 34.2016 76.1856 76.1856 76.1856h258.7648a76.288 76.288 0 0 0 76.1856-76.1856v-258.816a76.0832 76.0832 0 0 0-76.1856-76.1856z m2.7648 335.1552c0 1.3312-1.2288 2.56-2.56 2.56H76.288a2.6624 2.6624 0 0 1-2.56-2.56v-258.9696c0-1.3312 1.1776-2.56 2.56-2.56h258.7648c1.3824 0 2.56 1.2288 2.56 2.56v258.9696H337.92z m552.0384-335.1552h-258.7648a76.288 76.288 0 0 0-76.1856 76.1856v258.816c0 41.984 34.2016 76.1856 76.1856 76.1856h258.9184a76.288 76.288 0 0 0 76.1856-76.1856v-258.816a76.288 76.288 0 0 0-76.288-76.1856z m2.7648 335.1552c0 1.3312-1.2288 2.56-2.56 2.56h-258.9696a2.6624 2.6624 0 0 1-2.56-2.56v-258.9696c0-1.3312 1.1776-2.56 2.56-2.56h258.9184c1.3824 0 2.6112 1.2288 2.6112 2.56v258.9696z" fill="#323C57" p-id="17332"></path></svg>
