<svg t="1618754159209" class="icon" viewBox="0 0 1024 1024" version="1.1" xmlns="http://www.w3.org/2000/svg" p-id="5530" width="24" height="24"><path d="M542.86 130.76m0 32l0 178.14q0 32-32 32l0 0q-32 0-32-32l0-178.14q0-32 32-32l0 0q32 0 32 32Z"   p-id="5531"></path><path d="M556.118955 160.107879m-22.627417 22.627417l-87.094342 87.094342q-22.627417 22.627417-45.254834 0l0 0q-22.627417-22.627417 0-45.254834l87.094342-87.094342q22.627417-22.627417 45.254834 0l0 0q22.627417 22.627417 0 45.254834Z"   p-id="5532"></path><path d="M600.233636 292.45847m-22.627417-22.627417l-87.094343-87.094343q-22.627417-22.627417 0-45.254834l0 0q22.627417-22.627417 45.254834 0l87.094343 87.094343q22.627417 22.627417 0 45.254834l0 0q-22.627417 22.627417-45.254834 0Z"   p-id="5533"></path><path d="M481.14 893.33m0-32l0-178.14q0-32 32-32l0 0q32 0 32 32l0 178.14q0 32-32 32l0 0q-32 0-32-32Z"   p-id="5534"></path><path d="M467.892409 863.975757m22.627417-22.627417l87.094342-87.094342q22.627417-22.627417 45.254834 0l0 0q22.627417 22.627417 0 45.254834l-87.094342 87.094342q-22.627417 22.627417-45.254834 0l0 0q-22.627417-22.627417 0-45.254834Z"   p-id="5535"></path><path d="M423.756172 731.623995m22.627417 22.627417l87.094342 87.094342q22.627417 22.627417 0 45.254834l0 0q-22.627417 22.627417-45.254834 0l-87.094342-87.094342q-22.627417-22.627417 0-45.254834l0 0q22.627417-22.627417 45.254834 0Z"   p-id="5536"></path><path d="M130.71 481.18m32 0l178.14 0q32 0 32 32l0 0q0 32-32 32l-178.14 0q-32 0-32-32l0 0q0-32 32-32Z"   p-id="5537"></path><path d="M160.06595 467.94053m22.627417 22.627417l87.094342 87.094343q22.627417 22.627417 0 45.254834l0 0q-22.627417 22.627417-45.254834 0l-87.094342-87.094343q-22.627417-22.627417 0-45.254834l0 0q22.627417-22.627417 45.254834 0Z"   p-id="5538"></path><path d="M292.417834 423.814486m-22.627417 22.627417l-87.094343 87.094342q-22.627417 22.627417-45.254834 0l0 0q-22.627417-22.627417 0-45.254834l87.094343-87.094342q22.627417-22.627417 45.254834 0l0 0q22.627417 22.627417 0 45.254834Z"   p-id="5539"></path><path d="M893.29 542.9m-32 0l-178.14 0q-32 0-32-32l0 0q0-32 32-32l178.14 0q32 0 32 32l0 0q0 32-32 32Z"   p-id="5540"></path><path d="M863.924221 556.156712m-22.627417-22.627417l-87.094342-87.094342q-22.627417-22.627417 0-45.254834l0 0q22.627417-22.627417 45.254834 0l87.094342 87.094342q22.627417 22.627417 0 45.254834l0 0q-22.627417 22.627417-45.254834 0Z"   p-id="5541"></path><path d="M731.582359 600.281636m22.627417-22.627417l87.094342-87.094343q22.627417-22.627417 45.254834 0l0 0q22.627417 22.627417 0 45.254834l-87.094342 87.094343q-22.627417 22.627417-45.254834 0l0 0q-22.627417-22.627417 0-45.254834Z"   p-id="5542"></path><path d="M510.83 512.73m-64 0a64 64 0 1 0 128 0 64 64 0 1 0-128 0Z"   p-id="5543"></path></svg>
