<?xml version="1.0" standalone="no"?><!DOCTYPE svg PUBLIC "-//W3C//DTD SVG 1.1//EN" "http://www.w3.org/Graphics/SVG/1.1/DTD/svg11.dtd"><svg t="1557896168313" class="icon" style="" viewBox="0 0 1024 1024" version="1.1" xmlns="http://www.w3.org/2000/svg" p-id="10902" xmlns:xlink="http://www.w3.org/1999/xlink" width="16" height="16"><defs><style type="text/css"></style></defs><path d="M76.8 56.8832v910.2336C76.8 1001.2416 99.6992 1024 134.0416 1024h744.1024c34.3424 0 57.2416-22.7584 57.2416-56.8832V284.4416L649.1776 0H134.0544C99.6992 0 76.8 22.7584 76.8 56.8832z" fill="#FE6464" p-id="10903"></path><path d="M230.4 512v210.56h31.5904v-82.1376h55.68c51.1488 0 76.7232-20.9024 76.7232-64.2048 0-43.3152-25.5744-64.2176-75.2256-64.2176H230.4z m206.1312 0v210.56h76.7232c34.6112 0 60.1856-8.96 78.2464-28.3776 16.5504-17.92 25.5744-44.8 25.5744-77.6448 0-32.8576-9.024-59.7376-25.5744-76.16C573.44 520.96 547.84 512 513.2544 512h-76.7232z m224.1792 0v210.56h31.5904V628.48h105.3184V601.6h-105.3184v-62.72h111.3344V512H660.7104z m-398.72 26.88h52.6592c15.0528 0 27.0848 2.9824 34.6112 8.96 7.5264 5.9776 10.5344 14.9376 10.5344 28.3776s-4.5184 22.4-10.5344 28.3648c-7.5264 5.9776-19.5584 8.96-34.6112 8.96h-52.6592V538.88z m206.1312 0h39.1168c27.0848 0 46.6432 5.9776 58.6752 19.4176 12.032 11.9424 18.048 31.36 18.048 59.7248 0 26.88-6.016 46.2976-18.048 58.24-12.032 13.44-31.5904 19.4176-58.6752 19.4176H469.632V538.88h-1.4976z" fill="#FFFFFF" p-id="10904"></path><path d="M935.3856 283.5712H651.8144V0z" fill="#FBB1B1" p-id="10905"></path></svg>