<?xml version="1.0" standalone="no"?><!DOCTYPE svg PUBLIC "-//W3C//DTD SVG 1.1//EN" "http://www.w3.org/Graphics/SVG/1.1/DTD/svg11.dtd"><svg t="1597806882411" class="icon" viewBox="0 0 1024 1024" version="1.1" xmlns="http://www.w3.org/2000/svg" p-id="30127" xmlns:xlink="http://www.w3.org/1999/xlink" width="200" height="200"><defs><style type="text/css"></style></defs><path d="M894.72 383.2832a127.7952 127.7952 0 0 1 0 255.6416 127.7952 127.7952 0 0 1-41.5232-7.68l-118.8864 178.2784a127.7952 127.7952 0 1 1-164.864-21.7088L391.7824 255.4368h-8.3456a121.4464 121.4464 0 0 1-40.2432-7.0144L226.2528 429.9264c18.944 22.8352 29.2864 51.5072 29.3888 81.152A127.7952 127.7952 0 1 1 174.4896 392.192l114.9952-178.2784a127.7952 127.7952 0 0 1-33.8432-86.272A127.7952 127.7952 0 1 1 453.12 235.008l177.664 531.712h8.2944c14.1824 0.256 28.2112 2.816 41.5744 7.68l118.8352-178.3296a127.7952 127.7952 0 0 1-32.5632-84.992 127.7952 127.7952 0 0 1 127.7952-127.7952zM384 204.5952a76.8 76.8 0 1 0 0-153.6 76.8 76.8 0 0 0 0 153.6z m-256 384a76.8 76.8 0 1 0 0-153.6 76.8 76.8 0 0 0 0 153.6z m768 0a76.8 76.8 0 1 0 0-153.6 76.8 76.8 0 0 0 0 153.6z m-256 384a76.8 76.8 0 1 0 0-153.6 76.8 76.8 0 0 0 0 153.6z" p-id="30128"></path></svg>