<?xml version="1.0" standalone="no"?><!DOCTYPE svg PUBLIC "-//W3C//DTD SVG 1.1//EN" "http://www.w3.org/Graphics/SVG/1.1/DTD/svg11.dtd"><svg class="icon" width="200px" height="200.00px" viewBox="0 0 1024 1024" version="1.1" xmlns="http://www.w3.org/2000/svg"><path d="M651.065224 0.108424H147.708988C113.579671 0.108424 87.985694 25.708424 87.985694 59.831718v904.336564c0 34.129318 25.6 59.723294 59.723294 59.723294h725.172706c34.129318 0 59.723294-25.6 59.723294-59.723294V281.648188L651.065224 0.108424z" fill="#FF9843" /><path d="M255.247059 489.712941h89.148235c52.001129 0 78.004706 21.985882 78.004706 65.957647 0 44.375341-26.202353 66.56-78.607059 66.56h-53.308235V704.752941h-35.237647V489.712941z m35.237647 30.117647v72.282353h51.2c15.4624 0 26.907106-2.812988 34.334118-8.432941 7.228235-5.824753 10.842353-15.161224 10.842352-28.009412 0-12.649412-3.716518-21.787106-11.143529-27.407059-7.029459-5.619953-18.371765-8.432941-34.032941-8.432941h-51.2z m162.032941-30.117647h89.148235c52.001129 0 78.004706 21.985882 78.004706 65.957647 0 44.375341-26.202353 66.56-78.607059 66.56h-53.308235V704.752941h-35.237647V489.712941z m35.237647 30.117647v72.282353h51.2c15.4624 0 26.907106-2.812988 34.334118-8.432941 7.228235-5.824753 10.842353-15.161224 10.842353-28.009412 0-12.649412-3.716518-21.787106-11.14353-27.407059-7.029459-5.619953-18.371765-8.432941-34.032941-8.432941h-51.2z m145.468235-30.117647h176.188236v30.117647h-70.475294V704.752941h-35.237647V519.830588h-70.475295v-30.117647z" fill="#FFFFFF" /><path d="M651.065224 221.930918c0 34.123294 25.6 59.717271 59.723294 59.71727h221.81647L651.065224 0.108424v221.822494z" fill="#FFBA82" /></svg>