<?xml version="1.0" standalone="no"?><!DOCTYPE svg PUBLIC "-//W3C//DTD SVG 1.1//EN" "http://www.w3.org/Graphics/SVG/1.1/DTD/svg11.dtd"><svg class="icon" width="200px" height="200.00px" viewBox="0 0 1024 1024" version="1.1" xmlns="http://www.w3.org/2000/svg"><path d="M666.545694 16.889976l-2.029929 243.639718h243.657788z" fill="#FF9843" /><path d="M607.954824 317.114729V0.391529H165.357929C127.259106 0.391529 96.406588 30.900706 96.406588 68.632094v886.777977c0 37.641035 30.894682 68.1984 68.993506 68.1984h690.176c38.147012 0 69.077835-30.557365 69.077835-68.258636V317.114729H607.954824z" fill="#FF9843" /><path d="M183.103247 619.640471h80.233412c46.802824 0 70.204235 19.787294 70.204235 59.361882 0 39.936-23.582118 59.904-70.746353 59.904h-47.977412V813.176471h-31.713882v-193.536z m31.713882 27.105882v65.054118h46.08c13.914353 0 24.214588-2.529882 30.900706-7.589647 6.505412-5.240471 9.758118-13.643294 9.758118-25.208471 0-11.384471-3.343059-19.606588-10.0352-24.666353-6.324706-5.059765-16.528565-7.589647-30.623624-7.589647h-46.08z m145.829647-27.105882h80.233412c46.802824 0 70.198212 19.787294 70.198212 59.361882 0 39.936-23.576094 59.904-70.740329 59.904h-47.977412V813.176471h-31.713883v-193.536z m31.713883 27.105882v65.054118h46.08c13.914353 0 24.214588-2.529882 30.900706-7.589647 6.505412-5.240471 9.758118-13.643294 9.758117-25.208471 0-11.384471-3.343059-19.606588-10.029176-24.666353-6.324706-5.059765-16.534588-7.589647-30.629647-7.589647h-46.08z m130.921412-27.105882h158.569411v27.105882h-63.427764V813.176471h-31.719906v-166.430118h-63.427765v-27.105882z m168.321505 0h38.767436l45.537882 68.306823 45.537882-68.306823h38.755389l-65.319153 93.515294L864.545129 813.176471h-38.767435l-49.874823-74.812236-49.874824 74.812236h-38.755388l69.12-100.020706-64.783059-93.515294z" fill="#FFFFFF" /></svg>