<?xml version="1.0" standalone="no"?><!DOCTYPE svg PUBLIC "-//W3C//DTD SVG 1.1//EN" "http://www.w3.org/Graphics/SVG/1.1/DTD/svg11.dtd"><svg t="1597310548778" class="icon" viewBox="0 0 1024 1024" version="1.1" xmlns="http://www.w3.org/2000/svg" p-id="7363" xmlns:xlink="http://www.w3.org/1999/xlink" width="200" height="200"><defs><style type="text/css"></style></defs><path d="M512.048762 360.350476a69.827048 69.827048 0 0 1-69.680762-69.680762c0-38.278095 31.353905-69.632 69.680762-69.632 38.278095 0 69.632 31.353905 69.632 69.632 0 38.326857-31.353905 69.729524-69.632 69.729524z m69.632 348.306286c0 38.326857-31.353905 69.632-69.632 69.632a69.778286 69.778286 0 0 1-69.680762-69.632v-208.993524c0-38.326857 31.353905-69.632 69.680762-69.632 38.278095 0 69.632 31.305143 69.632 69.632v208.993524zM512.048762 12.04419c-269.55581 0-487.619048 218.063238-487.619048 487.619048 0 269.653333 218.063238 487.619048 487.619048 487.619048 269.604571 0 487.619048-217.965714 487.619048-487.619048 0-269.55581-218.014476-487.619048-487.619048-487.619048z" p-id="7364"></path></svg>