<?xml version="1.0" standalone="no"?><!DOCTYPE svg PUBLIC "-//W3C//DTD SVG 1.1//EN" "http://www.w3.org/Graphics/SVG/1.1/DTD/svg11.dtd"><svg t="1595840507057" class="icon" viewBox="0 0 1024 1024" version="1.1" xmlns="http://www.w3.org/2000/svg" p-id="4915" xmlns:xlink="http://www.w3.org/1999/xlink" width="200" height="200"><defs><style type="text/css"></style></defs><path d="M716.8 246.964706l-24.094118 30.117647c-12.047059 18.070588-6.023529 42.164706 18.070589 48.188235l198.77647 18.070588c24.094118 0 48.188235-24.094118 36.141177-48.188235l-60.235294-186.729412c-6.023529-24.094118-36.141176-24.094118-48.188236-12.047058l-42.164706 48.188235C692.705882 72.282353 560.188235 42.164706 427.670588 66.258824 234.917647 102.4 90.352941 252.988235 60.235294 439.717647c-42.164706 277.082353 180.705882 518.023529 457.788235 518.023529 192.752941 0 361.411765-114.447059 433.694118-283.105882 12.047059-30.117647 6.023529-60.235294-18.070588-78.305882-36.141176-30.117647-90.352941-12.047059-102.4 30.117647-60.235294 150.588235-222.870588 240.941176-391.529412 198.77647-126.494118-30.117647-222.870588-132.517647-246.964706-252.988235-36.141176-204.8 126.494118-379.482353 325.270588-379.482353 78.305882-6.023529 144.564706 18.070588 198.776471 54.211765z" p-id="4916"></path><path d="M524.047059 993.882353c-144.564706 0-283.105882-60.235294-379.482353-174.682353C54.211765 710.776471 12.047059 578.258824 36.141176 439.717647 66.258824 240.941176 222.870588 78.305882 427.670588 42.164706c132.517647-24.094118 259.011765 0 367.435294 66.258823l24.094118-24.094117c12.047059-18.070588 36.141176-24.094118 54.211765-18.070588 24.094118 6.023529 36.141176 18.070588 42.164706 42.164705l60.235294 186.729412c6.023529 18.070588 0 42.164706-12.047059 60.235294-12.047059 18.070588-36.141176 24.094118-60.235294 24.094118L704.752941 361.411765c-24.094118 0-42.164706-18.070588-48.188235-36.141177-6.023529-18.070588-6.023529-42.164706 12.047059-60.235294l6.023529-6.023529c-42.164706-24.094118-96.376471-36.141176-144.564706-36.141177-90.352941 0-174.682353 42.164706-234.917647 108.42353C240.941176 397.552941 216.847059 481.882353 234.917647 566.211765c18.070588 114.447059 108.423529 204.8 222.870588 228.894117 150.588235 36.141176 301.176471-42.164706 355.388236-180.705882 12.047059-30.117647 36.141176-48.188235 66.258823-54.211765 30.117647-6.023529 60.235294 0 84.329412 18.070589 36.141176 24.094118 42.164706 72.282353 30.117647 114.447058-84.329412 180.705882-265.035294 301.176471-469.835294 301.176471z m0-903.529412c-30.117647 0-60.235294 0-90.352941 6.02353-174.682353 36.141176-319.247059 174.682353-343.341177 349.364705-18.070588 120.470588 18.070588 240.941176 96.376471 331.294118 84.329412 96.376471 204.8 150.588235 337.317647 150.588235 180.705882 0 337.317647-102.4 403.57647-265.035294 6.023529-12.047059 6.023529-30.117647-6.023529-42.164706-12.047059-12.047059-30.117647-6.023529-36.141176-6.023529-12.047059 6.023529-18.070588 12.047059-24.094118 18.070588-66.258824 162.635294-246.964706 259.011765-427.670588 216.847059-138.541176-30.117647-246.964706-144.564706-271.058824-277.082353-18.070588-102.4 12.047059-204.8 78.305882-283.105882 66.258824-84.329412 168.658824-132.517647 283.105883-132.517647 72.282353 0 144.564706 24.094118 210.823529 66.258823l30.117647 18.070588-48.188235 60.235295 198.776471 12.047058h6.023529l-60.235294-192.752941-54.211765 72.282353-24.094117-18.070588c-72.282353-54.211765-162.635294-84.329412-259.011765-84.329412z" p-id="4917"></path></svg>