<?xml version="1.0" encoding="UTF-8"?>
<svg width="20px" height="20px" viewBox="0 0 20 20" version="1.1" xmlns="http://www.w3.org/2000/svg" xmlns:xlink="http://www.w3.org/1999/xlink">
    <title>icon/图片保存</title>
    <g id="页面-1" stroke="none" stroke-width="1" fill="none" fill-rule="evenodd">
        <g id="工具箱" transform="translate(-1798.000000, -186.000000)" fill="#323C57">
            <g id="组件/一张图组件/辅助编制/1" transform="translate(1786.000000, 134.000000)">
                <g id="分组" transform="translate(12.000000, 16.000000)">
                    <g id="icon/图片保存" transform="translate(0.000000, 36.000000)">
                        <path d="M1.5,0 C1.77614237,-5.07265313e-17 2,0.223857625 2,0.5 L2,3 L17.5,3 C17.7761424,3 18,3.22385763 18,3.5 L18,16 L19.5,16 C19.7761424,16 20,16.2238576 20,16.5 C20,16.7761424 19.7761424,17 19.5,17 L18,17 L18,19.5 C18,19.7761424 17.7761424,20 17.5,20 C17.2238576,20 17,19.7761424 17,19.5 L17,17 L1.5,17 C1.22385763,17 1,16.7761424 1,16.5 L1,4 L0.5,4 C0.223857625,4 0,3.77614237 0,3.5 C0,3.22385763 0.223857625,3 0.5,3 L1,3 L1,0.5 C1,0.223857625 1.22385763,5.07265313e-17 1.5,0 Z M17,3.999 L2,4 L2,16 L17,16 L17,3.999 Z M13.3092289,8.63366997 C13.4472512,8.64394228 13.5663828,8.73428884 13.6135036,8.86442454 L13.6135036,8.86442454 L15.5860645,14.131828 C15.6319942,14.2431789 15.6147746,14.3705994 15.5409362,14.4657647 C15.4734286,14.5639999 15.3610069,14.6216551 15.2418382,14.6191565 L15.2418382,14.6191565 L4.01095655,14.6191565 C3.87757437,14.6217825 3.75361726,14.5506324 3.68861153,14.4341336 C3.62303267,14.3200735 3.62778296,14.1786972 3.70087017,14.0692962 L3.70087017,14.0692962 L5.96998857,10.6062627 C6.07127552,10.450753 6.27275508,10.3953963 6.43927846,10.4773247 L6.43927846,10.4773247 L10.2600673,12.3326347 C10.4272752,12.4158259 10.630289,12.3603554 10.7319614,12.2036966 L10.7319614,12.2036966 L12.9617632,8.79677973 C13.0373172,8.68095755 13.1718558,8.61780152 13.3092289,8.63366997 Z M6.30843496,5.64446709 C7.04185045,5.64446709 7.63640117,6.23901846 7.63640117,6.97243394 C7.63640117,7.70584943 7.04185045,8.30040015 6.30843496,8.30040015 C5.57501947,8.30040015 4.98046811,7.70584943 4.98046811,6.97243394 C4.9801228,6.62012947 5.11992203,6.28215503 5.36903904,6.03303802 C5.61815604,5.78392102 5.95613048,5.64412179 6.30843496,5.64446709 Z" id="合并形状"></path>
                    </g>
                </g>
            </g>
        </g>
    </g>
</svg>