<?xml version="1.0" standalone="no"?><!DOCTYPE svg PUBLIC "-//W3C//DTD SVG 1.1//EN" "http://www.w3.org/Graphics/SVG/1.1/DTD/svg11.dtd"><svg class="icon" width="200px" height="200.00px" viewBox="0 0 1024 1024" version="1.1" xmlns="http://www.w3.org/2000/svg"><path d="M651.065224 0.108424H147.708988C113.579671 0.108424 87.985694 25.708424 87.985694 59.831718v904.336564c0 34.129318 25.6 59.723294 59.723294 59.723294h725.172706c34.129318 0 59.723294-25.6 59.723294-59.723294V281.648188L651.065224 0.108424z" fill="#FB7070" /><path d="M313.524706 485.496471c25.4976 0 45.278871 5.2224 59.331765 15.661176 15.058824 11.245929 23.690541 28.611765 25.901176 52.103529h-34.936471c-3.011765-13.251765-8.535341-22.787012-16.564705-28.611764-7.631812-5.824753-19.474071-8.734118-35.538824-8.734118-13.655341 0-23.991718 1.909459-31.021176 5.722353-8.836518 4.415247-13.251765 11.848282-13.251765 22.287059 0 9.438871 5.0176 16.763482 15.058823 21.985882 4.818824 2.608188 17.064659 7.029459 36.74353 13.251765 28.310588 8.631718 47.085929 15.661176 56.32 21.082353 18.672941 11.041129 28.009412 26.503529 28.009412 46.381176 0 19.275294-7.529412 34.532894-22.588236 45.778824-15.2576 11.041129-36.544753 16.564706-63.849411 16.564706-26.503529 0-47.182306-5.12-62.042353-15.36-18.269365-12.649412-28.111812-32.629459-29.515295-59.934118h34.936471c2.409412 16.462306 8.234165 28.111812 17.468235 34.936471 8.631718 6.222306 21.684706 9.336471 39.152942 9.33647 15.661176 0 28.111812-2.608188 37.345882-7.830588 9.234071-5.619953 13.854118-12.751812 13.854118-21.383529 0-11.444706-6.728282-20.48-20.178824-27.105883-4.818824-2.409412-18.775341-7.125835-41.863529-14.155294-26.702306-8.432941-43.170635-14.456471-49.392942-18.070588-16.462306-9.836424-24.696471-24.292894-24.69647-43.369412 0-19.275294 8.029365-34.231718 24.094117-44.875294 14.860047-10.438776 33.930541-15.661176 57.22353-15.661176z m120.169412 4.21647h35.237647v89.750588h109.025882V489.712941h35.237647V704.752941h-35.237647v-95.171765h-109.025882V704.752941H433.694118V489.712941z m221.665882 0h89.148235c52.001129 0 78.004706 21.985882 78.004706 65.957647 0 44.375341-26.202353 66.56-78.607059 66.56h-53.308235V704.752941H655.36V489.712941z m35.237647 30.117647v72.282353h51.2c15.4624 0 26.907106-2.812988 34.334118-8.432941 7.228235-5.824753 10.842353-15.161224 10.842353-28.009412 0-12.649412-3.716518-21.787106-11.14353-27.407059-7.029459-5.619953-18.371765-8.432941-34.032941-8.432941h-51.2z" fill="#FFFFFF" /><path d="M651.065224 221.930918c0 34.123294 25.6 59.717271 59.723294 59.71727h221.81647L651.065224 0.108424v221.822494z" fill="#FF9B9B" /></svg>