  <svg
    t="1621302555524"
    class="icon"
    viewBox="0 0 1024 1024"
    version="1.1"
    xmlns="http://www.w3.org/2000/svg"
    p-id="16592"
  >
    <path
      d="M905.644942 16.611556a56.888889 56.888889 0 0 1 80.327111 80.213333L581.833387 500.963556l404.138666 404.024888a56.888889 56.888889 0 0 1-80.327111 80.327112l-434.631111-434.176a55.751111 55.751111 0 0 1-14.791111-50.062223 55.751111 55.751111 0 0 1 14.791111-49.834666z m-455.111111 0a56.888889 56.888889 0 0 1 80.327111 80.213333L126.722276 500.963556l404.138666 404.024888a56.888889 56.888889 0 0 1-80.327111 80.327112L15.90272 551.139556a55.751111 55.751111 0 0 1-14.791111-50.062223 55.751111 55.751111 0 0 1 14.791111-49.834666z"
      fill="#1890FF"
      p-id="16593"
    ></path>
  </svg>
