<svg
  t="1618989229087"
  class="icon"
  viewBox="0 0 1024 1024"
  version="1.1"
  xmlns="http://www.w3.org/2000/svg"
  p-id="2993"
  width="200"
  height="200"
>
  <path
    d="M182.631815 957.38628a31.85599 31.85599 0 0 1-31.685334-31.685333V97.217656a31.85599 31.85599 0 0 1 31.742219-31.742219H641.699389l223.105704 228.225416v375.104286h7.679569c19.909994 0 39.364902 2.559856 58.307839 6.655627V264.575377L669.800923 0H182.6887C128.931717 0 85.357273 43.517558 85.357273 97.274542v828.938376c0 53.700098 43.517558 97.217656 97.274542 97.217656h462.594487a235.506785 235.506785 0 0 1-19.966879-65.987408H182.631815z"
    fill="#1890FF"
    p-id="2994"
  ></path>
  <path
    d="M661.097412 349.505722c-18.37408 0-35.837989-7.167598-48.580385-20.478851a67.921522 67.921522 0 0 1-19.454909-49.092356l2.559857-176.061232 245.632439 246.656382c0-0.568857-180.157002-1.023943-180.157002-1.023943z m-359.176291 304.45225c-12.799282 0-23.550679-14.790281-23.550678-32.709275 0-17.918995 10.751397-32.766161 23.550678-32.766162h296.772681c12.799282 0 23.550679 14.790281 23.550679 32.766162 0 17.862109-10.808282 32.709276-23.550679 32.709275H301.921121z m0 138.68733c-12.799282 0-23.550679-14.790281-23.550678-32.766162 0-18.430966 10.751397-32.709276 23.550678-32.709276h296.772681c12.799282 0 23.550679 14.790281 23.550679 32.709276 0 18.430966-10.808282 32.766161-23.550679 32.766162H301.921121z m500.935448-95.681743a129.073646 129.073646 0 0 0-128.447904 129.471847c0 59.331782 53.756984 121.280306 97.274542 170.884633l6.598741 7.679569c4.09577 4.607741 7.679569 9.215483 11.263368 13.311253a16.326195 16.326195 0 0 0 12.28731 5.631684 16.326195 16.326195 0 0 0 12.287311-5.631684c3.583799-4.09577 7.167598-8.703512 11.263368-12.799281l8.19154-9.215483c43.517558-49.092356 97.729627-110.528909 97.729627-169.34872a128.846104 128.846104 0 0 0-128.447903-129.983818z m0 179.076174c-31.173362 0-56.771926-25.598564-56.771926-57.283897 0-31.742219 25.598564-57.340783 56.771926-57.340782 31.230248 0 56.828811 25.598564 56.828811 57.340782a56.487497 56.487497 0 0 1-56.828811 57.283897z"
    fill="#004E97"
    p-id="2995"
  ></path>
</svg>
