<svg t="1618365668953" class="icon" viewBox="0 0 1024 1024" version="1.1" xmlns="http://www.w3.org/2000/svg" p-id="16168" width="200" height="200"><path d="M510.748444 872.106667h0.341334c17.92 0 34.872889-7.907556 45.568-21.447111 99.555556-125.098667 326.997333-351.914667 326.997333-502.897778C881.265778 154.965333 715.093333 0 510.862222 0S140.458667 155.022222 138.069333 347.704889c0 151.04 227.441778 377.969778 327.111111 502.954667 10.695111 13.539556 27.648 21.504 45.511112 21.504zM285.240889 513.479111c-60.871111-89.088-73.955556-139.093333-74.069333-165.376 1.080889-73.045333 32.142222-141.653333 87.608888-193.422222a299.690667 299.690667 0 0 1 94.947556-59.733333 317.838222 317.838222 0 0 1 117.134222-22.186667c40.561778 0 79.985778 7.395556 117.020445 22.072889a301.681778 301.681778 0 0 1 95.004444 59.733333c55.409778 51.768889 86.471111 120.490667 87.495111 193.422222-0.113778 26.282667-13.084444 76.231111-74.012444 165.376-47.900444 70.087111-109.397333 141.596444-163.669334 204.8-22.300444 25.884444-43.576889 50.631111-61.838222 72.931556-18.318222-22.414222-39.651556-47.217778-61.952-73.102222-54.272-62.919111-115.768889-134.428444-163.669333-204.515556z" fill="#1890FF" p-id="16169"></path><path d="M973.596444 780.913778c-23.324444-16.384-55.978667-30.890667-97.052444-43.52a36.352 36.352 0 1 0-21.504 69.518222c72.817778 22.300444 91.249778 44.544 92.387556 49.550222-0.341333 1.024-3.640889 9.443556-25.258667 22.072889-21.731556 12.629333-53.816889 24.632889-93.127111 34.872889-85.504 22.072889-198.542222 34.304-318.179556 34.304-119.637333 0-232.675556-12.117333-318.293333-34.304-39.196444-10.126222-71.452444-22.186667-93.127111-34.872889-21.504-12.515556-24.917333-21.048889-25.258667-22.072889 0.341333-1.024 3.527111-8.760889 22.528-20.48 19.626667-12.003556 48.981333-23.608889 84.878222-33.507555a36.238222 36.238222 0 0 0 25.372445-44.771556 36.579556 36.579556 0 0 0-44.999111-25.201778c-45.738667 12.629333-82.318222 27.704889-108.487111 44.771556-43.406222 28.16-52.565333 58.595556-52.565334 79.303111 0 20.935111 9.386667 51.825778 54.044445 80.213333 26.965333 17.180444 64.568889 32.426667 111.559111 45.056 92.444444 24.860444 214.641778 38.627556 344.177778 38.627556 129.649778 0 251.847111-13.767111 344.291555-38.684445 47.047111-12.686222 84.536889-27.818667 111.502222-44.942222 44.714667-28.444444 54.044444-59.335111 54.044445-80.213333 0.170667-19.683556-8.078222-48.583111-46.933334-75.719111zM401.123556 385.365333c0 60.245333 49.152 109.056 109.738666 109.056a109.397333 109.397333 0 0 0 109.681778-109.056c0-60.302222-49.095111-109.112889-109.681778-109.112889A109.397333 109.397333 0 0 0 401.066667 385.365333z" fill="#004E97" p-id="16170"></path></svg>
