<?xml version="1.0" standalone="no"?>
<!DOCTYPE svg PUBLIC "-//W3C//DTD SVG 1.1//EN" "http://www.w3.org/Graphics/SVG/1.1/DTD/svg11.dtd">
<svg
  t="1618193710121"
  class="icon"
  viewBox="0 0 1024 1024"
  version="1.1"
  xmlns="http://www.w3.org/2000/svg"
  p-id="2264"
  xmlns:xlink="http://www.w3.org/1999/xlink"
  width="200"
  height="200"
>
  <defs><style type="text/css"></style></defs>
  <path
    d="M32 832a32 32 0 0 1 32 32V960h96a32 32 0 1 1 0 64h-128a32 32 0 0 1-32-32v-128a32 32 0 0 1 32-32z m960 0a32 32 0 0 1 32 32v128a32 32 0 0 1-26.24 31.488L992 1024h-128a32 32 0 0 1 0-64H960v-96a32 32 0 0 1 32-32zM512 832a32 32 0 0 1 31.488 26.24l0.512 5.76v64a32 32 0 0 1-63.488 5.76L480 928v-64A32 32 0 0 1 512 832z m267.072-97.408l4.48 3.712 45.248 45.248a32 32 0 0 1-40.832 48.96l-4.48-3.712-45.184-45.248a32 32 0 0 1 40.768-48.96z m-493.376 3.712a32 32 0 0 1 3.712 40.768l-3.712 4.48-45.248 45.248a32 32 0 0 1-48.96-40.832l3.712-4.48 45.248-45.184a32 32 0 0 1 45.248 0zM512 256a256 256 0 1 1 0 512 256 256 0 0 1 0-512z m0 64a192 192 0 1 0 0 384 192 192 0 0 0 0-384z m416 160a32 32 0 0 1 5.76 63.488l-5.76 0.512h-64a32 32 0 0 1-5.76-63.488l5.76-0.512h64z m-768 0a32 32 0 0 1 5.76 63.488L160 544h-64a32 32 0 0 1-5.76-63.488L96 480h64z m668.8-284.8a32 32 0 0 1 3.712 40.832l-3.712 4.48-45.248 45.184a32 32 0 0 1-48.96-40.768l3.712-4.48 45.248-45.248a32 32 0 0 1 45.248 0z m-592.768-3.712l4.48 3.712 45.184 45.248a32 32 0 0 1-40.768 48.96l-4.48-3.712-45.248-45.248a32 32 0 0 1 40.832-48.96zM160 0a32 32 0 0 1 0 64H64v96a32 32 0 0 1-64 0v-128A32 32 0 0 1 32 0h128z m832 0a32 32 0 0 1 32 32v128a32 32 0 0 1-64 0V64h-96a32 32 0 1 1 0-64h128zM512 64a32 32 0 0 1 31.488 26.24l0.512 5.76v64a32 32 0 0 1-63.488 5.76L480 160v-64A32 32 0 0 1 512 64z"
    p-id="2265"
  ></path>
</svg>
