<?xml version="1.0" standalone="no"?><!DOCTYPE svg PUBLIC "-//W3C//DTD SVG 1.1//EN" "http://www.w3.org/Graphics/SVG/1.1/DTD/svg11.dtd"><svg t="1597806947818" class="icon" viewBox="0 0 1024 1024" version="1.1" xmlns="http://www.w3.org/2000/svg" p-id="31037" xmlns:xlink="http://www.w3.org/1999/xlink" width="200" height="200"><defs><style type="text/css"></style></defs><path d="M984.7808 1023.3856H877.568c-12.3904 0-22.3744-3.072-30.0032-9.2672a56.832 56.832 0 0 1-17.1008-23.6032l-95.744-247.296H275.5584l-95.744 247.296a56.064 56.064 0 0 1-17.1008 22.8864 45.568 45.568 0 0 1-30.0032 9.984H25.6L434.8416 0h140.6976l409.2416 1023.3856z m-670.6688-379.392h382.1056L535.552 227.84a776.2432 776.2432 0 0 1-30.72-96.3584c-5.2736 19.456-10.3936 37.4784-15.36 53.9136-5.0176 16.384-9.8816 30.7712-14.6432 43.1616l-160.7168 415.488z" p-id="31038"></path></svg>