<!--
 * @Author: Lauxb
 * @Date: 2021-03-24 13:42:42
 * @LastEditTime: 2021-04-15 15:38:36
 * @LastEditors: Lauxb
 * @Description:
-->
<?xml version="1.0" standalone="no"?>
<!DOCTYPE svg PUBLIC "-//W3C//DTD SVG 1.1//EN" "http://www.w3.org/Graphics/SVG/1.1/DTD/svg11.dtd">
<svg
  t="1617938183043"
  class="icon"
  viewBox="0 0 1368 1024"
  version="1.1"
  xmlns="http://www.w3.org/2000/svg"
  p-id="3529"
  xmlns:xlink="http://www.w3.org/1999/xlink"
  width="267.1875"
  height="200"
>
  <defs>
    <style type="text/css"></style>
  </defs>
  <path
    d="M1279.5904 426.666667H426.871467a85.333333 85.333333 0 0 0 0 170.666666h852.718933a85.333333 85.333333 0 0 0 0-170.666666z m-1193.847467 0a85.333333 85.333333 0 1 0 0 170.666666 85.333333 85.333333 0 0 0 0-170.666666z m0-426.325334a85.333333 85.333333 0 1 0 0 170.5984 85.333333 85.333333 0 0 0 0-170.5984z m341.128534 170.530134h852.718933a85.265067 85.265067 0 1 0 0-170.530134H426.871467a85.333333 85.333333 0 0 0 0 170.530134z m852.718933 682.257066H426.871467a85.333333 85.333333 0 0 0 0 170.530134h852.718933a85.333333 85.333333 0 0 0 0-170.530134z m-1193.847467 0a85.333333 85.333333 0 1 0 0 170.5984 85.333333 85.333333 0 0 0 0-170.666666z"
    p-id="3530"
  ></path>
</svg>
