<?xml version="1.0" standalone="no"?><!DOCTYPE svg PUBLIC "-//W3C//DTD SVG 1.1//EN" "http://www.w3.org/Graphics/SVG/1.1/DTD/svg11.dtd"><svg t="1597314526138" class="icon" viewBox="0 0 1024 1024" version="1.1" xmlns="http://www.w3.org/2000/svg" p-id="6873" xmlns:xlink="http://www.w3.org/1999/xlink" width="200" height="200"><defs><style type="text/css"></style></defs><path d="M632.1152 496.4352s47.5648 186.0096-135.5264 186.0096c-188.928 0-135.5776-186.0096-135.5776-186.0096H0v434.2272C0 978.3296 40.448 1024 90.5728 1024h842.8544c44.9536 0 90.5728-40.3968 90.5728-93.3376v-434.176h-391.8848z m-121.3952 122.4704c59.0848 0 61.6448-74.8032 61.6448-123.136H421.4272c1.28 38.4 1.28 123.8016 60.416 123.8016 0 0.6656 16.0256-0.6656 28.8768-0.6656z m121.3952-432.896H361.0112V123.8016c0-18.5344 12.2368-31.1296 30.208-31.1296h210.7392c17.9712 0 30.208 11.9296 30.208 31.1296v62.208z m90.624 0V62.208C723.3536 32.4096 689.3056 0 662.3232 0H331.4688c-27.648 0-60.416 31.1296-60.416 62.208v123.8016H90.624C45.6192 186.0096 0 235.6736 0 279.3472V434.176h1023.3344V279.3472c0-46.336-45.568-93.3376-90.5728-93.3376h-210.0224z" p-id="6874"></path></svg>