<svg
  t="1619054834796"
  class="icon"
  viewBox="0 0 1024 1024"
  version="1.1"
  xmlns="http://www.w3.org/2000/svg"
  p-id="3120"
  width="200"
  height="200"
>
  <path
    d="M995.98755 584.607092l-436.576943 211.24856c-40.959488 21.862127-61.439232 21.862127-95.538005 0L27.295659 584.607092C6.815915 570.066474 0.0064 526.342221 0.0064 497.209785l68.197547 36.402745 443.437657 218.570068 443.386458-218.570068 68.248747-36.402745c0 21.862127-6.809515 72.856689-27.289259 87.397307z m0-218.518868l-436.576943 211.248559c-40.959488 21.862127-61.439232 21.862127-95.538005 0L27.295659 366.088224c-34.098774-21.862127-34.098774-80.126998 0-101.989125L463.872602 16.396595c40.959488-21.862127 61.439232-21.862127 95.538005 0l436.576943 247.702504c27.289259 14.540618 27.289259 80.126998 0 101.989125z m-484.345946-305.967376l-443.386457 254.972813 443.386457 196.656742 443.386458-196.656742-443.386458-254.972813z m0 903.310309l443.386458-218.570068 68.248747-36.402745c0 29.183635-6.809515 80.126998-27.289259 87.397308l-436.576943 211.248559c-40.959488 21.862127-61.439232 21.862127-95.538005 0L27.295659 795.855652C6.815915 781.315034 0.0064 737.59078 0.0064 708.458344l68.197547 36.402745 443.437657 218.570068z"
    fill="#323C57"
    p-id="3121"
  ></path>
</svg>
