<svg t="1618469971063" class="icon" viewBox="0 0 1024 1024" version="1.1" xmlns="http://www.w3.org/2000/svg" p-id="17456" width="200" height="200"><path d="M153.6 193.024V25.6a25.6 25.6 0 0 1 25.6-25.6h819.2a25.6 25.6 0 0 1 25.6 25.6v716.8a25.6 25.6 0 0 1-25.6 25.6h-131.0208v220.1088c0 13.312-10.752 24.064-24.064 24.064h-819.2A24.064 24.064 0 0 1 0 988.16V217.088c0-13.312 10.752-24.064 24.064-24.064H153.6z m51.2 0h638.464c13.312 0 24.1152 10.752 24.1152 24.064V716.8H972.8V51.2H204.8v141.824z m519.5776 242.0736l0.5632-1.1776h-14.6944l-8.192 8.3968 10.5472 23.3472a9.984 9.984 0 0 1-2.3552 10.752l-16.4352 16.7424c-2.3552 0-4.096 2.4064-6.5024 2.4064l-18.7904 2.4064 2.3552 8.3968c0 4.1984 0 5.9904-2.3552 8.3456l-29.3888 29.952a11.52 11.52 0 0 1-12.3904 0l-2.304-2.4064c-2.3552 0-2.3552-4.1984-2.3552-6.5536v-12.5952l-4.096-6.6048-35.328 46.6944 14.1312 3.584 2.3552 10.752 6.4512-5.9392 6.4512-8.3968c1.792-1.792 5.888-4.1984 8.2432-4.1984h16.4864v10.752l-16.4864 6.656c-1.7408 1.792-4.096 1.792-4.096 4.1472l-8.2432 15.0016c-1.7408 4.1472-1.7408 10.1376 2.3552 12.544l14.6944 12.5952c1.7408 2.3552 4.096 4.1472 4.096 6.5536l2.3552 8.3968c0 2.4064 1.792 4.1984 4.096 6.5536l8.2944 6.656c1.7408 2.3552 4.096 4.096 4.096 6.5536l4.096 38.2976a15.872 15.872 0 0 1-4.096 8.3968l-10.5984 6.5536c-1.7408 2.4064-4.096 4.1984-4.096 6.6048l-6.5024 31.744c0 1.7408 0 1.7408-2.304 4.1472l-39.9872 35.9424c-1.792 2.3552-1.792 2.3552-4.096 2.3552l-12.3904 4.1984c-2.3552 0-6.4512 2.4064-6.4512 6.6048l-2.3552 10.752-10.5984 4.1984-8.192-2.4064h-2.4064l-14.6944 4.1984c-4.096 0-6.4512 6.6048-6.4512 10.752l2.3552 15.0016c0 2.4064 0 4.1984-2.3552 6.5536l-10.5984 15.0016c-1.7408 4.1984-8.192 6.5536-12.3392 4.1984l-10.5984-6.6048v-10.752l14.6944-16.7936-2.3552-10.752h-25.2416c-2.3552 0-4.096-1.792-6.5024-4.1984l-14.6944-16.7424c-4.096-4.8128-8.192-4.8128-12.3392-2.4064l-6.4512 4.1984c-2.3552 2.3552-4.096 2.3552-6.5024 2.3552h-21.1456c-4.096 0-8.192 4.1984-8.192 8.3968s-4.1472 8.3968-8.2944 8.3968h-4.096s-1.792 0-4.096-2.4064l-21.1968-14.9504v-15.0016l-2.3552-6.5536c0-4.1984-4.096-6.6048-6.4512-6.6048l-8.2432-2.3552v-10.752l10.5984-10.8032c2.3552-2.4064 2.3552-4.1984 2.3552-6.6048v-19.1488l-4.096-12.5952h-10.5984v8.3968l-18.8416-8.3968c-1.7408-2.3552-5.888-2.3552-8.192 0l-21.1968 12.5952c-1.792 2.4064-1.792 2.4064-4.096 2.4064h-10.5984c-4.096 0-5.888-1.792-8.2432-4.1984l-6.4512-12.5952c-1.792-1.792-4.096-4.1472-8.2432-4.1472h-12.9536l-6.4512 8.3456-35.328-14.9504-2.304-2.4064-41.7792-42.496H142.848l-18.8416-16.7424c0-2.4064-2.3552-4.1984-2.3552-6.6048v-16.7424h8.2432v-27.5456l-4.096-14.9504c0-1.792 0-1.792-2.3552-4.1984l-14.6944-12.5952c-1.792-2.3552-4.096-4.1472-4.096-6.5536v-34.0992h-8.2944v-10.752c0-2.4576 0-4.2496 4.096-10.8032l6.5024-8.3968c2.3552 0 4.096-2.4064 6.4512-2.4064h35.328l22.8864-6.5536c4.096 0 4.096-1.792 6.5024-4.1984l6.4512-10.752c2.3552 0 2.3552-1.8432 2.3552-4.2496v-12.544c0-4.1984 4.096-8.3968 8.192-8.3968h10.5984c4.096 0 5.888-1.792 8.2432-4.1984l8.2432-12.544c0-1.792 4.096-4.1984 6.4512-4.1984h21.1968v-10.752h10.5984l5.8368-8.3968h10.5984l4.096 12.5952c0 1.792 1.792 4.1472 4.096 4.1472h14.7456c1.7408 2.4064 4.096 4.1984 4.096 6.6048l2.3552 12.544v15.0016c0 4.1984 4.096 8.3456 8.2432 8.3456h2.3552c2.3552 0 4.096 1.792 6.4512 4.1984l25.2928 34.1504c2.3552 1.792 4.096 4.1472 6.5024 4.1472l45.824 2.4064c1.792 0 1.792 2.4064 4.096 2.4064l12.3904 10.752c2.3552 2.4064 4.096 2.4064 6.4512 2.4064h18.8416c2.3552 0 4.096 0 6.4512-2.4064L455.68 509.952c2.3552-2.4064 4.096-2.4064 6.5024-2.4064h25.2928c2.3552 0 4.096 0 6.4512-2.4064l16.4864-19.1488-6.5024-6.5536 4.096-6.6048c1.792-1.792 4.1472-4.1984 8.2432-4.1984l16.4864 2.4064 4.096-12.5952h18.8416V445.952l18.7904-6.6048c6.5024-2.3552 8.2432-10.752 4.096-14.9504l-6.4512-4.1984-8.192 6.6048h-10.5984c-5.888 0-10.5984-5.9904-8.192-12.5952l4.096-10.752c0-4.1984 4.096-6.6048 8.192-6.6048h4.096c2.4064 0 4.1472 0 6.5024-2.3552l4.096-4.1984s2.3552-1.792 2.3552-4.1984l4.096-27.5456v-12.544l22.9888-8.3968h4.096l14.6944 2.4064c2.3552 0 4.096 1.792 6.4512 4.1472l22.9376 34.1504c1.792 1.792 5.888 4.1984 8.2432 4.1984h11.776c2.3552 0 4.096 1.792 6.4512 4.1984l10.5984 8.3456c0 1.792 4.096 4.1984 6.4512 4.1984h5.888c2.3552 0 4.096 0 6.4512-2.4064l14.7456-16.7424h4.096v55.04l-0.0512-0.0512z m-102.2976 351.3856l10.5472-17.408h10.5984l-4.096 44.9536c0 1.792-2.3552 1.792-2.3552 4.1984l-6.5024 8.3456-8.192-12.544c-2.3552-2.4064-2.3552-4.1984-2.3552-6.6048v-16.7424c0-1.792 2.3552-1.792 2.3552-4.1984zM48.128 241.2032v722.7904H819.2V241.2032H48.128z" fill="#323C57" p-id="17457"></path></svg>
