<svg t="1618403806915" class="icon" viewBox="0 0 1024 1024" version="1.1" xmlns="http://www.w3.org/2000/svg" p-id="16828" width="200" height="200"><path d="M32.021359 1024a31.998576 31.998576 0 0 1-29.694679-43.876447l255.988609-639.971522a31.998576 31.998576 0 0 1 56.317494-5.83654l228.700223 343.024735 233.564006-367.138862A31.844983 31.844983 0 0 1 767.988609 288.032751v-63.997153a31.998576 31.998576 0 0 1 63.997152-0.153593L964.895046 14.892905c17.202434-27.032397 58.979775-14.847339 58.979776 17.151237v959.906084c0 17.663214-14.335362 31.998576-31.998576 31.998576H32.021359zM384.005696 553.697728L295.024055 420.378861 79.225658 960.002848H384.005696v-406.356317 0.051197zM959.980065 141.863255l-127.994304 201.155849V960.002848h127.994304V141.863255zM415.953074 320.031327c17.663214 0 31.998576 14.335362 31.998576 31.998576v63.997152a31.998576 31.998576 0 0 1-63.997152 0v-63.997152c0-17.663214 14.335362-31.998576 31.998576-31.998576z m0-191.991457c17.663214 0 31.998576 14.335362 31.998576 32.049774v63.997152a31.998576 31.998576 0 0 1-63.997152 0v-63.997152c0-17.714412 14.335362-31.998576 31.998576-31.998576z m383.982913-127.994304c17.663214 0 31.947378 14.335362 31.947378 32.049774v63.997152a31.998576 31.998576 0 1 1-63.997152 0V32.09534c0-17.714412 14.335362-31.998576 31.998576-31.998576z m-319.985761 0a31.998576 31.998576 0 0 1 0 63.997152h-63.997152a31.998576 31.998576 0 0 1 0-63.997152h63.997152z m191.991457 0a31.998576 31.998576 0 1 1 0 63.997152h-63.997153a31.998576 31.998576 0 1 1 0-63.997152h63.997153z" fill="#323C57" p-id="16829"></path></svg>
