<?xml version="1.0" standalone="no"?><!DOCTYPE svg PUBLIC "-//W3C//DTD SVG 1.1//EN" "http://www.w3.org/Graphics/SVG/1.1/DTD/svg11.dtd"><svg class="icon" width="200px" height="200.00px" viewBox="0 0 1024 1024" version="1.1" xmlns="http://www.w3.org/2000/svg"><path d="M651.065224 0.108424H147.708988C113.579671 0.108424 87.985694 25.708424 87.985694 59.831718v904.336564c0 34.129318 25.6 59.723294 59.723294 59.723294h725.172706c34.129318 0 59.723294-25.6 59.723294-59.723294V281.648188L651.065224 0.108424z" fill="#FBB722" /><path d="M243.350588 489.712941h176.188236v30.117647h-70.475295V704.752941H313.825882V519.830588H243.350588v-30.117647z m187.030588 0h43.068236l50.597647 75.896471 50.597647-75.896471h43.068235L545.129412 593.618824 622.531765 704.752941H579.463529l-55.41647-83.124706-55.416471 83.124706h-43.068235L502.362353 593.618824 430.381176 489.712941z m198.174118 0h176.188235v30.117647h-70.475294V704.752941h-35.237647V519.830588h-70.475294v-30.117647z" fill="#FFFFFF" /><path d="M651.065224 221.930918c0 34.123294 25.6 59.717271 59.723294 59.71727h221.81647L651.065224 0.108424v221.822494z" fill="#FACE6F" /></svg>