<?xml version="1.0" standalone="no"?><!DOCTYPE svg PUBLIC "-//W3C//DTD SVG 1.1//EN" "http://www.w3.org/Graphics/SVG/1.1/DTD/svg11.dtd"><svg t="1624502420041" class="icon" viewBox="0 0 1024 1024" version="1.1" xmlns="http://www.w3.org/2000/svg" p-id="18072" xmlns:xlink="http://www.w3.org/1999/xlink" width="200" height="200"><defs><style type="text/css"></style></defs><path d="M657.487076 580.494222a43.235556 43.235556 0 0 1 61.155555 61.155556l-209.066667 209.066666-209.009777-209.066666a43.235556 43.235556 0 1 1 61.155555-61.155556l104.618667 104.561778V324.608a43.292444 43.292444 0 1 1 86.584889 0v360.448l104.561778-104.561778z" fill="#228BFF" p-id="18073"></path><path d="M952.626631 398.904889L709.426631 310.897778l27.761778-80.213334 106.496 38.513778c-77.653333-115.484444-206.108444-184.32-343.210667-183.808-229.944889 0-417.052444 191.260444-417.052444 426.609778 0 235.235556 187.164444 426.666667 417.109333 426.666667 230.058667 0 417.223111-191.431111 417.223111-426.666667H1001.266631c0 207.075556-121.969778 393.671111-309.077333 473.031111-187.050667 79.189333-402.375111 35.441778-545.564445-110.990222-180.110222-184.32-196.266667-477.411556-37.432889-681.130667C267.911964-10.808889 550.934187-60.131556 766.770631 78.336a507.847111 507.847111 0 0 1 151.552 151.552l26.510222-84.48L1024.022187 171.235556l-71.395556 227.555555z" fill="#666666" p-id="18074"></path></svg>