<?xml version="1.0" standalone="no"?>
<!DOCTYPE svg PUBLIC "-//W3C//DTD SVG 1.1//EN" "http://www.w3.org/Graphics/SVG/1.1/DTD/svg11.dtd">
<svg
  t="1617938160167"
  class="icon"
  viewBox="0 0 1170 1024"
  version="1.1"
  xmlns="http://www.w3.org/2000/svg"
  p-id="3108"
  xmlns:xlink="http://www.w3.org/1999/xlink"
  width="228.515625"
  height="200"
>
  <path
    d="M224.014629 235.666286l146.285714-219.428572A36.425143 36.425143 0 0 1 393.340343 0.731429L400.581486 0h510.390857l4.681143 0.438857 4.973714 1.097143 5.266286 2.121143 5.12 2.925714 1.755428 1.316572c8.045714 6.290286 13.604571 16.091429 13.604572 28.525714v727.771428c0 4.754286-0.950857 9.435429-2.706286 13.824l-3.364571 6.217143-146.505143 219.721143-2.194286 2.706286a34.962286 34.962286 0 0 1-26.697143 12.214857H255.0272a36.425143 36.425143 0 0 1-35.84-29.915429l-0.585143-6.582857v-436.662857l-82.505143 0.146286a72.777143 72.777143 0 1 1 0-72.777143h82.505143l0.146286-221.622857 1.170286-6.290286 1.316571-3.876571 2.852571-5.632H224.014629z m504.027428 55.442285h-436.662857v654.994286h436.662857V291.108571z m145.554286 254.756572h-72.777143v316.196571l72.777143-109.129143V545.645714v0.219429z m218.331428-109.202286a72.777143 72.777143 0 1 1-62.976 109.202286h-82.578285v-72.777143h82.578285a72.777143 72.777143 0 0 1 62.976-36.425143z m-654.994285 36.425143v72.777143h-145.554286v-72.777143h145.554286z m218.331428 0v72.777143h-145.554285v-72.777143h145.554285z m218.331429-316.635429l-72.777143 109.202286v207.433143h72.777143V156.452571zM841.852343 72.777143H420.037486l-96.987429 145.554286h421.888l96.987429-145.554286z"
    p-id="3109"
  ></path>
</svg>
