<?xml version="1.0" standalone="no"?>
<!DOCTYPE svg PUBLIC "-//W3C//DTD SVG 1.1//EN" "http://www.w3.org/Graphics/SVG/1.1/DTD/svg11.dtd">
<svg
  t="1617938112389"
  class="icon"
  viewBox="0 0 1024 1024"
  version="1.1"
  xmlns="http://www.w3.org/2000/svg"
  p-id="2545"
  xmlns:xlink="http://www.w3.org/1999/xlink"
  width="200"
  height="200"
>
  <path
    d="M691.456 387.456c24.96 36.096 38.4 78.912 38.4 123.84 0 58.56-22.912 113.408-64.128 154.624a217.792 217.792 0 0 1-154.88 64.128 217.472 217.472 0 0 1-154.88-64.128A217.408 217.408 0 0 1 291.968 511.36c0-58.368 22.848-113.344 64.128-154.624a218.048 218.048 0 0 1 136.768-63.36l-5.824-72.768a291.84 291.84 0 0 0-268.16 290.752 291.84 291.84 0 0 0 292.032 291.648 291.84 291.84 0 0 0 292.032-291.648c0-61.376-19.008-118.016-51.2-164.992l-60.224 41.152z"
    p-id="2546"
  ></path>
  <path
    d="M510.272 2.304v472.896a36.416 36.416 0 1 0 0 72.96 36.48 36.48 0 0 0 28.352-59.52l367.872-297.664 0.448-0.448 0.256-0.128A509.12 509.12 0 0 0 510.656 1.024h-0.384v1.28z"
    p-id="2547"
  ></path>
  <path
    d="M931.648 223.104l-0.448 0.448-0.256 0.128-59.392 40.768c16.32 23.872 30.4 49.408 41.6 76.224 22.848 53.824 34.368 110.848 34.368 169.856 0 58.944-11.52 116.096-34.368 169.792a433.216 433.216 0 0 1-93.696 138.752 434.688 434.688 0 0 1-308.928 127.872 434.688 434.688 0 0 1-308.928-127.872 437.568 437.568 0 0 1-93.696-138.752 431.68 431.68 0 0 1-34.432-169.792c0-59.008 11.52-116.16 34.432-169.856A433.216 433.216 0 0 1 201.6 201.92a437.76 437.76 0 0 1 138.88-93.568 430.912 430.912 0 0 1 135.04-32.896L469.824 3.968 469.76 2.688C207.168 23.488 0.448 242.944 0.448 510.72c0 281.216 228.352 509.44 510.08 509.44 281.728 0 510.08-228.096 510.08-509.44a506.56 506.56 0 0 0-88.96-287.552z"
    p-id="2548"
  ></path>
</svg>
