<?xml version="1.0" standalone="no"?><!DOCTYPE svg PUBLIC "-//W3C//DTD SVG 1.1//EN" "http://www.w3.org/Graphics/SVG/1.1/DTD/svg11.dtd"><svg t="1557896176162" class="icon" style="" viewBox="0 0 1024 1024" version="1.1" xmlns="http://www.w3.org/2000/svg" p-id="11024" xmlns:xlink="http://www.w3.org/1999/xlink" width="16" height="16"><defs><style type="text/css"></style></defs><path d="M76.8 56.8832v910.2336C76.8 1001.2416 99.6992 1024 134.0416 1024h744.1024c34.3424 0 57.2416-22.7584 57.2416-56.8832V284.4416L649.1776 0H134.0544C99.6992 0 76.8 22.7584 76.8 56.8832z" fill="#6EA5FC" p-id="11025"></path><path d="M935.3856 283.5712H651.8144V0z" fill="#CDDEFE" p-id="11026"></path><path d="M365.8624 779.8144l-107.904-362.3424h62.4768l56.7808 207.0528 22.72 74.7648c0-5.7472 5.6832-28.7488 17.0368-74.752l56.7936-207.0656h62.464l51.1104 207.0528 17.024 69.0176 22.72-69.0176 62.464-207.0528h56.7936l-107.904 356.5952h-62.464l-56.7808-212.8-17.0368-57.5232-73.8304 276.0704h-62.464z" fill="#FFFFFF" p-id="11027"></path></svg>