<?xml version="1.0" standalone="no"?><!DOCTYPE svg PUBLIC "-//W3C//DTD SVG 1.1//EN" "http://www.w3.org/Graphics/SVG/1.1/DTD/svg11.dtd"><svg class="icon" width="200px" height="200.00px" viewBox="0 0 1024 1024" version="1.1" xmlns="http://www.w3.org/2000/svg"><path d="M923.467294 256.252988h-164.731482c-21.353412 0-42.706824-9.155765-57.9584-24.401317-15.251576-15.2576-24.407341-38.128941-24.407341-59.488377V0.012047l247.0912 256.240941z" fill="#9AA9B6" /><path d="M607.737976 366.067953c-24.407341-22.877365-56.440471-33.551059-97.617317-33.551059-41.182871 0-76.257882 12.197647-102.189177 38.128941s-39.658918 54.910494-39.658917 86.9376c0 21.353412 10.673694 30.509176 32.027106 30.509177s32.033129-10.679718 32.033129-32.03313c1.523953-16.775529 9.155765-32.027106 22.877365-44.230776 13.733647-12.203671 30.503153-18.305506 51.862588-18.305506 21.353412 0 39.652894 6.101835 51.856565 16.781553 12.203671 10.673694 18.299482 25.925271 18.299482 45.754729 0 7.625788 0 15.251576-1.523953 21.353412s-3.047906 12.203671-7.625788 18.305506c-4.577882 6.101835-9.155765 12.197647-15.251577 18.299482-6.101835 6.101835-15.251576 13.733647-25.931294 24.407342-21.353412 21.353412-38.128941 41.182871-48.808659 62.536282-10.673694 19.823435-16.775529 41.176847-16.775529 61.006306 0 7.625788 0 13.733647 1.523953 18.305506 0 4.577882 1.523953 7.625788 4.577882 10.673694 1.523953 3.053929 4.577882 4.577882 9.155765 4.577882 4.571859 1.523953 12.197647 1.523953 19.823435 1.523953 19.829459 0 30.503153-10.673694 30.503153-35.081035 0-7.625788 0-15.251576 1.529977-21.353412 1.523953-6.101835 3.047906-13.727624 7.625788-19.829459 3.047906-6.101835 9.149741-13.727624 16.775529-22.877365 7.625788-7.625788 16.775529-18.299482 30.503153-30.503152 19.829459-18.305506 35.081035-36.604988 44.230777-53.386542a111.290729 111.290729 0 0 0 13.733647-53.380517c1.523953-41.182871-10.679718-73.216-33.557083-94.569412zM529.950118 744.333553c-4.577882-4.577882-9.155765-7.625788-15.251577-9.155765-6.101835-3.047906-12.203671-3.047906-18.305506-3.047906-6.101835 0-12.203671 1.523953-18.305506 3.047906-6.095812 3.053929-10.673694 6.101835-15.251576 9.155765-4.577882 4.577882-7.625788 9.149741-10.673694 13.727623-3.053929 4.577882-3.053929 10.673694-3.05393 16.77553 0 6.101835 1.529976 12.203671 3.05393 16.775529 3.047906 4.577882 6.101835 10.679718 10.673694 13.733647 4.577882 4.571859 9.155765 7.619765 15.251576 9.149742a29.310494 29.310494 0 0 0 18.305506 6.095811c6.101835 0 12.203671-1.523953 18.305506-3.047906 6.095812-3.047906 10.673694-6.101835 15.251577-9.155764 4.577882-4.571859 7.625788-9.149741 10.673694-13.7216 3.053929-4.577882 3.053929-10.679718 3.053929-16.781553 0-6.095812-1.529976-12.197647-3.053929-16.77553-3.047906-7.625788-7.625788-13.727624-10.673694-16.775529z" fill="#FFFFFF" /><path d="M923.467294 256.252988h-164.731482c-21.353412 0-42.706824-9.155765-57.9584-24.401317-15.251576-15.2576-24.407341-38.128941-24.407341-59.488377V0.012047H183.717647c-22.877365 0-44.230776 7.625788-59.482353 24.401318C108.977694 41.200941 99.827953 62.542306 99.827953 85.425694v854.136471c0 47.284706 36.604988 83.889694 82.365741 83.889694h658.907859c21.353412 0 42.706824-9.155765 57.9584-24.401318 15.251576-15.2576 24.401318-36.611012 24.401318-59.488376V256.252988z m-384.367435 536.889224c-3.047906 4.577882-6.101835 10.673694-10.673694 13.727623-4.577882 3.047906-9.155765 7.625788-15.2576 9.149741-6.095812 3.047906-12.197647 3.047906-18.299483 3.047906s-12.203671-1.523953-18.305506-3.047906c-6.101835-3.053929-10.673694-6.101835-15.251576-9.155764-4.577882-4.577882-7.625788-9.149741-10.673694-13.7216-3.053929-4.577882-3.053929-10.679718-3.05393-16.781553 0-6.101835 1.523953-12.197647 3.05393-16.77553 3.047906-4.577882 6.095812-10.679718 10.673694-13.733647 4.577882-4.571859 9.155765-7.619765 15.251576-9.143717 6.101835-3.053929 12.203671-3.053929 18.305506-3.05393 6.101835 0 12.203671 1.523953 18.299483 3.05393 6.101835 3.047906 10.679718 6.101835 15.2576 9.149741 4.577882 4.577882 7.625788 9.155765 10.673694 13.727623 3.047906 4.577882 3.047906 10.673694 3.047906 16.77553 1.529976 4.577882 0 10.679718-3.047906 16.781553z m88.461553-280.648283c-9.149741 16.775529-24.401318 35.081035-44.230777 53.386542-12.197647 12.197647-22.877365 21.353412-30.503153 30.503153-7.625788 7.625788-13.727624 15.251576-16.775529 22.877364-4.577882 6.101835-6.101835 13.733647-7.625788 19.829459-1.529976 6.101835-1.529976 13.727624-1.529977 21.353412 0 24.401318-9.149741 35.081035-30.503153 35.081035-9.155765 0-15.251576 0-19.829459-1.523953-4.577882-1.529976-7.625788-3.053929-9.155764-4.577882-1.517929-3.047906-3.047906-6.101835-4.571859-10.679718s-1.523953-10.673694-1.523953-18.299482c0-19.829459 6.101835-41.182871 16.775529-61.01233 10.679718-19.823435 27.455247-41.176847 48.808659-62.530258 10.679718-9.155765 18.305506-18.305506 25.931294-24.407342 6.101835-6.101835 12.203671-12.203671 15.251577-18.299482 4.577882-6.101835 6.101835-12.203671 7.625788-18.311529 1.523953-6.095812 1.523953-12.197647 1.523953-21.347389 0-19.829459-6.095812-35.081035-18.299482-45.754729-12.203671-10.679718-30.503153-16.781553-51.862589-16.781553-21.353412 0-39.652894 6.101835-53.380517 18.305506-13.727624 12.197647-19.829459 27.455247-21.353412 44.230776-1.523953 21.353412-12.203671 32.027106-32.033129 32.027106-22.877365 0-32.027106-9.149741-32.027106-30.503153 0-32.027106 13.727624-62.536282 39.658917-86.9376 25.925271-24.407341 59.482353-38.128941 100.665224-38.128941s73.209976 10.673694 97.611294 33.551059c22.883388 21.353412 35.081035 53.386541 35.081035 94.569412 1.529976 19.823435-3.047906 38.128941-13.727623 53.380517z" fill="#C2CDD3" /></svg>
