<?xml version="1.0" standalone="no"?><!DOCTYPE svg PUBLIC "-//W3C//DTD SVG 1.1//EN" "http://www.w3.org/Graphics/SVG/1.1/DTD/svg11.dtd"><svg class="icon" width="200px" height="200.00px" viewBox="0 0 1024 1024" version="1.1" xmlns="http://www.w3.org/2000/svg"><path d="M651.065224 0.108424H147.708988C113.579671 0.108424 87.985694 25.708424 87.985694 59.831718v904.336564c0 34.129318 25.6 59.723294 59.723294 59.723294h725.172706c34.129318 0 59.723294-25.6 59.723294-59.723294V281.648188L651.065224 0.108424z" fill="#36AF47" /><path d="M243.2 489.712941h43.068235l50.597647 75.896471 50.597647-75.896471h43.068236l-72.58353 103.905883L435.350588 704.752941h-43.068235l-55.416471-83.124706-55.41647 83.124706h-43.068236l76.8-111.134117-71.981176-103.905883z m214.738824 0h34.93647V674.635294h116.254118v30.117647h-151.190588V489.712941z m254.192941-4.21647c25.4976 0 45.278871 5.2224 59.331764 15.661176 15.058824 11.245929 23.690541 28.611765 25.901177 52.103529h-34.936471c-3.011765-13.251765-8.535341-22.787012-16.564706-28.611764-7.631812-5.824753-19.474071-8.734118-35.538823-8.734118-13.655341 0-23.991718 1.909459-31.021177 5.722353-8.836518 4.415247-13.251765 11.848282-13.251764 22.287059 0 9.438871 5.0176 16.763482 15.058823 21.985882 4.818824 2.608188 17.064659 7.029459 36.74353 13.251765 28.310588 8.631718 47.085929 15.661176 56.32 21.082353 18.672941 11.041129 28.009412 26.503529 28.009411 46.381176 0 19.275294-7.529412 34.532894-22.588235 45.778824-15.2576 11.041129-36.544753 16.564706-63.849412 16.564706-26.503529 0-47.182306-5.12-62.042353-15.36-18.269365-12.649412-28.111812-32.629459-29.515294-59.934118h34.936471c2.409412 16.462306 8.234165 28.111812 17.468235 34.936471 8.631718 6.222306 21.684706 9.336471 39.152941 9.33647 15.661176 0 28.111812-2.608188 37.345883-7.830588 9.234071-5.619953 13.854118-12.751812 13.854117-21.383529 0-11.444706-6.728282-20.48-20.178823-27.105883-4.818824-2.409412-18.775341-7.125835-41.86353-14.155294-26.702306-8.432941-43.170635-14.456471-49.392941-18.070588-16.462306-9.836424-24.696471-24.292894-24.69647-43.369412 0-19.275294 8.029365-34.231718 24.094117-44.875294 14.860047-10.438776 33.930541-15.661176 57.22353-15.661176z" fill="#FFFFFF" /><path d="M651.065224 221.930918c0 34.123294 25.6 59.717271 59.723294 59.71727h221.81647L651.065224 0.108424v221.822494z" fill="#68DA78" /></svg>