<?xml version="1.0" standalone="no"?><!DOCTYPE svg PUBLIC "-//W3C//DTD SVG 1.1//EN" "http://www.w3.org/Graphics/SVG/1.1/DTD/svg11.dtd"><svg class="icon" width="200px" height="200.00px" viewBox="0 0 1024 1024" version="1.1" xmlns="http://www.w3.org/2000/svg"><path d="M666.545694 16.889976l-2.029929 243.639718h243.657788z" fill="#36AF47" /><path d="M607.954824 317.114729V0.391529H165.357929C127.259106 0.391529 96.406588 30.900706 96.406588 68.632094v886.777977c0 37.641035 30.894682 68.1984 68.993506 68.1984h690.176c38.147012 0 69.077835-30.557365 69.077835-68.258636V317.114729H607.954824z" fill="#36AF47" /><path d="M164.731482 809.484047l66.1504-101.014588-59.946164-92.575624h45.700517l38.8096 62.186918 38.038589-62.186918h45.284894l-60.199153 93.997177 66.1504 99.593035h-47.140141l-42.929695-66.945506-43.050164 66.945506h-46.869083z m201.107577 0v-191.975906h39.080659v159.352471h97.171576v32.623435h-136.252235z m154.2144-62.976l38.020517-3.716518c2.276894 12.763859 6.933082 22.166588 13.932424 28.153977 6.993318 5.957271 16.438212 8.987106 28.322635 8.987106 12.589176 0 22.076235-2.650353 28.44913-8.005271 6.372894-5.342871 9.565365-11.547106 9.565364-18.691012a17.606776 17.606776 0 0 0-4.01167-11.679623c-2.692518-3.216565-7.390871-6.035576-14.076988-8.3968-4.577882-1.584188-15.016659-4.4032-31.292236-8.432941-20.949835-5.180235-35.653271-11.595294-44.092235-19.136753-11.884424-10.655624-17.835671-23.666447-17.835671-38.954165 0-9.878588 2.794918-19.094588 8.372706-27.660047 5.601882-8.6016 13.643294-15.143153 24.1664-19.612612 10.511059-4.487529 23.208659-6.722259 38.080753-6.722259 24.292894 0 42.586353 5.342871 54.874353 15.998495 12.281976 10.6496 18.715106 24.835012 19.33553 42.628517l-39.074636 1.716706c-1.674541-9.962918-5.264565-17.088753-10.758023-21.455812-5.517553-4.361035-13.763765-6.517459-24.774777-6.517459-11.360376 0-20.263153 2.319059-26.672188 6.981271a14.185412 14.185412 0 0 0-6.204235 12.028988c0 4.577882 1.939576 8.481129 5.806682 11.739859 4.909176 4.156235 16.896 8.438965 35.92433 12.932518 19.010259 4.487529 33.069176 9.143718 42.194823 13.950494 9.107576 4.782682 16.233412 11.342306 21.371482 19.654776 5.156141 8.312471 7.728188 18.612706 7.728189 30.852518 0 11.089318-3.072 21.449788-9.234071 31.165741a55.458635 55.458635 0 0 1-26.154165 21.576283c-11.257976 4.698353-25.2928 7.059576-42.128564 7.059576-24.455529 0-43.260988-5.662118-56.380236-16.962259-13.113224-11.300141-20.901647-27.822682-23.455623-49.483294z m170.61647 62.976l66.1504-101.014588-59.946164-92.575624h45.700517l38.8096 62.186918 38.014494-62.186918h45.308989l-60.223247 93.997177 66.156423 99.593035h-47.146165l-42.92367-66.945506-43.050165 66.945506h-46.851012z" fill="#FFFFFF" /></svg>