<svg t="1618407844699" class="icon" viewBox="0 0 1024 1024" version="1.1" xmlns="http://www.w3.org/2000/svg" p-id="17078" width="200" height="200"><path d="M156.3648 493.7728a35.9424 35.9424 0 0 0 51.3024 0l47.2576-47.6672 46.848 47.3088a35.9424 35.9424 0 0 0 51.2512 0l47.2576-47.3088 46.8992 47.3088a35.84 35.84 0 0 0 25.8048 11.008 37.0176 37.0176 0 0 0 25.7536-10.6496l72.704-73.5232a36.864 36.864 0 0 0-16.2304-61.184 35.9936 35.9936 0 0 0-34.9696 9.4208l-47.2576 47.4112-46.8992-47.4112a35.9936 35.9936 0 0 0-50.8928 0l-47.2576 47.4112-46.8992-47.4112a35.9936 35.9936 0 0 0-51.2512 0l-47.2576 47.4112-47.2064-47.2576a35.9936 35.9936 0 0 0-60.6208 16.384 36.864 36.864 0 0 0 9.3696 35.328l72.2944 73.4208z m0 220.16a35.9424 35.9424 0 0 0 51.3024 0l47.2576-47.7184 46.848 47.4112a35.84 35.84 0 0 0 25.856 11.008 37.0176 37.0176 0 0 0 25.8048-10.752l72.6528-73.3696a36.864 36.864 0 0 0-16.2304-61.2352 35.9936 35.9936 0 0 0-34.9696 9.472l-47.2576 47.3088-46.8992-47.2576a35.9936 35.9936 0 0 0-51.2512 0l-47.2576 47.36-46.8992-47.36a35.9936 35.9936 0 0 0-60.6208 16.384 36.864 36.864 0 0 0 9.3696 35.328l72.2944 73.4208z m861.7472-529.92V110.5408h-72.704V37.1712a36.6592 36.6592 0 0 0-36.3008-36.6592h-97.4336a36.7104 36.7104 0 0 0-36.352 35.9424C767.3856 455.5264 435.968 859.9552 36.8128 859.9552a36.6592 36.6592 0 0 0-36.2496 36.7104v84.7872c-0.0512 20.1216 16.1792 36.5056 36.3008 36.6592h981.2992v-73.3696h-72.704v-183.4496h72.704v-73.3696h-72.704V504.4224h72.704V431.104h-72.704V184.0128h72.704z m-145.408 760.7296H73.216v-12.0832c410.624-19.456 747.776-429.056 773.1712-858.7776h26.1632v870.8608h0.2048z" fill="#323C57" p-id="17079"></path></svg>
