<?xml version="1.0" standalone="no"?><!DOCTYPE svg PUBLIC "-//W3C//DTD SVG 1.1//EN" "http://www.w3.org/Graphics/SVG/1.1/DTD/svg11.dtd"><svg class="icon" width="200px" height="200.00px" viewBox="0 0 1024 1024" version="1.1" xmlns="http://www.w3.org/2000/svg"><path d="M336.733365 465.209224h53.380517v85.413647h-53.380517v-85.413647z m297.417788 0h47.284706v85.413647h-47.284706v-85.413647z" fill="#FA6A68" /><path d="M390.113882 602.485459H283.346824V411.828706h106.767058V305.061647H100.321882v396.565082h289.792v-99.147294zM634.157176 305.061647V411.828706h100.671248v190.656753H634.151153v99.14127h289.798023V305.061647H634.157176z" fill="#FA6A68" /><path d="M634.157176 701.620706v183.030965H390.107859v-183.024942H100.321882v237.935436c0 45.760753 38.128941 83.889694 83.883671 83.889694h655.853929c45.760753 0 83.889694-38.128941 83.889694-83.889694v-237.935436H634.157176z" fill="#89D543" /><path d="M184.205553 0.012047C138.450824 0.012047 100.315859 38.140988 100.315859 83.901741v221.159906h289.798023V0.012047H184.205553z m655.853929 0H634.157176v305.0496h289.798024V83.901741c0-45.760753-36.604988-83.889694-83.889694-83.889694z" fill="#60CEF8" /><path d="M336.733365 549.104941h346.23247V463.691294h-346.23247v85.413647z m398.089035-137.276235v189.1328H283.346824v-189.138824h451.475576z" fill="#FFFFFF" /><path d="M390.113882 465.209224H634.157176v85.413647H390.113882v-85.413647z m0 137.276235H634.157176v282.166212H390.113882v-282.166212z m0-602.473412H634.157176V411.828706H390.113882V0.012047z" fill="#FDB84B" /></svg>