<?xml version="1.0" standalone="no"?><!DOCTYPE svg PUBLIC "-//W3C//DTD SVG 1.1//EN" "http://www.w3.org/Graphics/SVG/1.1/DTD/svg11.dtd"><svg t="1597805822947" class="icon" viewBox="0 0 1024 1024" version="1.1" xmlns="http://www.w3.org/2000/svg" p-id="14395" xmlns:xlink="http://www.w3.org/1999/xlink" width="200" height="200"><defs><style type="text/css"></style></defs><path d="M532.6848 0H480.8704C228.7616 12.544 10.5472 231.424 0 483.6352v60.416c12.8512 250.9312 230.2464 467.8656 481.28 479.7952h41.1648c266.3424 0.512 503.04-236.4416 501.5552-502.9888v-38.8608C1012.3776 227.0208 788.3264 6.144 532.6848 0z m267.264 559.7696c-80.0768 0.1536-160.0512 0.1536-240.128 0.1536v240.0256h-95.744v-240.0256c-80.0768 0-160.0512 0-240.128-0.1536V464.0768c80.0768-0.1024 160.0512-0.1024 240.128-0.1024V224.0512h95.744v240.0256c80.0768 0 160.0512 0 240.128 0.1024v95.5904z" fill="#666666" p-id="14396"></path></svg>